<?xml version="1.0" encoding="utf-8"?>
<!-- Generator: Adobe Illustrator 21.0.2, SVG Export Plug-In . SVG Version: 6.00 Build 0)  -->
<svg version="1.1" id="Layer_1" xmlns="http://www.w3.org/2000/svg" xmlns:xlink="http://www.w3.org/1999/xlink" x="0px" y="0px"
	 viewBox="0 0 29.4 30" style="enable-background:new 0 0 29.4 30;" xml:space="preserve">
<style type="text/css">
	.st0{fill:#3D5A98;}
	.st1{fill:#005CFF;}
	.st2{fill-rule:evenodd;clip-rule:evenodd;fill:#FF6600;}
	.st3{fill:#007EE5;}
	.st4{fill:#DC4E41;}
	.st5{fill:#2EDE73;}
	.st6{fill:#405DE6;}
	.st7{fill:#EA4C89;}
	.st8{fill:#0084FF;}
	.st9{fill:#1D66D8;}
	.st10{fill:#FB0A84;}
	.st11{fill:#0077B5;}
	.st12{fill:#FF4500;}
	.st13{fill:#1DA1F2;}
	.st14{fill:#303D4D;}
	.st15{fill:#BD081C;}
	.st16{fill:#F9EC31;}
	.st17{fill:#00AFF0;}
	.st18{fill:#32B8E8;}
	.st19{fill:#CD201F;}
	.st20{fill:#F29100;}
	.st21{fill:#00749A;}
	.st22{fill:#00AB6C;}
	.st23{fill:#FFFFFF;}
	.st24{fill-rule:evenodd;clip-rule:evenodd;fill:#FFFFFF;}
	.st25{fill:none;}
</style>
<g id="XMLID_5287_">
	<path id="XMLID_5288_" d="M15.6,0.2c4.4,2,8.8,4.1,13.2,6.2c0.2,0.1,0.5,0.2,0.5,0.5c0,0.3-0.3,0.4-0.5,0.5
		c-4.4,2-8.7,4.1-13.1,6.1c-0.7,0.3-1.4,0.3-2,0c-4.4-2-8.8-4.1-13.2-6.1C0.3,7.2,0,7.1,0,6.8c0-0.3,0.3-0.4,0.5-0.5
		c4.4-2.1,8.8-4.1,13.3-6.2C14.2-0.1,15.2,0,15.6,0.2z M14.7,30c-0.3,0-0.6-0.1-1-0.3c-4.4-2-8.8-4.1-13.1-6.1
		C0.3,23.5,0,23.4,0,23.1c0-0.3,0.3-0.4,0.5-0.5c0.7-0.3,1.5-0.7,2.2-1c0.7-0.3,1.5-0.3,2.2,0c2.9,1.4,5.8,2.7,8.7,4.1
		c0.7,0.3,1.4,0.3,2.2,0c2.9-1.4,5.8-2.7,8.7-4.1c0.7-0.3,1.4-0.3,2.1,0c0.8,0.4,1.5,0.7,2.3,1.1c0.1,0.1,0.2,0.1,0.3,0.2
		c0.2,0.2,0.2,0.4,0,0.6c-0.1,0.1-0.3,0.2-0.4,0.2c-4.3,2-8.7,4.1-13,6.1C15.4,29.8,15,30,14.7,30z M14.7,21.9c-0.1,0-0.7-0.2-1-0.3
		c-4.4-2-8.7-4.1-13.1-6.1C0.3,15.4,0,15.3,0,15c0-0.3,0.3-0.4,0.6-0.5c0.7-0.3,1.5-0.7,2.2-1c0.7-0.3,1.4-0.3,2.1,0
		c2.9,1.4,5.9,2.7,8.8,4.1c0.7,0.3,1.4,0.3,2,0c2.9-1.4,5.9-2.7,8.8-4.1c0.7-0.3,1.4-0.3,2,0c0.8,0.4,1.5,0.7,2.3,1.1
		c0.1,0,0.2,0.1,0.3,0.2c0.2,0.2,0.2,0.4,0,0.6c-0.1,0.1-0.2,0.1-0.3,0.2c-4.4,2.1-8.8,4.1-13.2,6.2C15.4,21.7,14.8,21.9,14.7,21.9z
		"/>
</g>
</svg>
