<?xml version="1.0" encoding="utf-8"?>
<!-- Generator: Adobe Illustrator 21.0.2, SVG Export Plug-In . SVG Version: 6.00 Build 0)  -->
<svg version="1.1" id="Layer_1" xmlns="http://www.w3.org/2000/svg" xmlns:xlink="http://www.w3.org/1999/xlink" x="0px" y="0px"
	 viewBox="0 0 60 60" style="enable-background:new 0 0 60 60;" xml:space="preserve">
<style type="text/css">
	.st0{fill:#3D5A98;}
	.st1{fill:#FFFFFF;}
	.st2{fill:#005CFF;}
	.st3{fill:#FF6600;}
	.st4{fill-rule:evenodd;clip-rule:evenodd;fill:#FFFFFF;}
	.st5{fill:#007EE5;}
	.st6{fill:#DC4E41;}
	.st7{fill:#2EDE73;}
	.st8{fill:#405DE6;}
	.st9{fill:#EA4C89;}
	.st10{fill:#0084FF;}
	.st11{fill:#1D66D8;}
	.st12{fill:#0077B5;}
	.st13{fill:#FF4500;}
	.st14{fill:none;}
	.st15{fill:#1DA1F2;}
	.st16{fill:#303D4D;}
	.st17{fill:#BD081C;}
	.st18{fill:#F9EC31;}
	.st19{fill:#00AFF0;}
	.st20{fill:#32B8E8;}
	.st21{fill:#CD201F;}
	.st22{fill:#F29100;}
	.st23{fill:#00749A;}
	.st24{fill:#00AB6C;}
	.st25{fill-rule:evenodd;clip-rule:evenodd;fill:#FF6600;}
	.st26{fill:#FB0A84;}
</style>
<g id="XMLID_358_">
	<path id="XMLID_775_" d="M30,60L30,60C13.4,60,0,46.6,0,30v0C0,13.4,13.4,0,30,0h0c16.6,0,30,13.4,30,30v0C60,46.6,46.6,60,30,60z"
		/>
	<g id="XMLID_770_">
		<path id="XMLID_771_" class="st1" d="M31,15.2c4.4,2,8.8,4.1,13.2,6.2c0.2,0.1,0.5,0.2,0.5,0.5c0,0.3-0.3,0.4-0.5,0.5
			c-4.4,2-8.7,4.1-13.1,6.1c-0.7,0.3-1.4,0.3-2,0c-4.4-2-8.8-4.1-13.2-6.1c-0.2-0.1-0.5-0.2-0.5-0.5c0-0.3,0.3-0.4,0.5-0.5
			c4.4-2.1,8.8-4.1,13.3-6.2C29.5,14.9,30.5,15,31,15.2z M30,45c-0.3,0-0.6-0.1-1-0.3c-4.4-2-8.8-4.1-13.1-6.1
			c-0.2-0.1-0.5-0.2-0.5-0.5c0-0.3,0.3-0.4,0.5-0.5c0.7-0.3,1.5-0.7,2.2-1c0.7-0.3,1.5-0.3,2.2,0c2.9,1.4,5.8,2.7,8.7,4.1
			c0.7,0.3,1.4,0.3,2.2,0c2.9-1.4,5.8-2.7,8.7-4.1c0.7-0.3,1.4-0.3,2.1,0c0.8,0.4,1.5,0.7,2.3,1.1c0.1,0.1,0.2,0.1,0.3,0.2
			c0.2,0.2,0.2,0.4,0,0.6c-0.1,0.1-0.3,0.2-0.4,0.2c-4.3,2-8.7,4.1-13,6.1C30.7,44.8,30.3,45,30,45z M30,36.9c-0.1,0-0.7-0.2-1-0.3
			c-4.4-2-8.7-4.1-13.1-6.1c-0.2-0.1-0.5-0.2-0.5-0.5c0-0.3,0.3-0.4,0.6-0.5c0.7-0.3,1.5-0.7,2.2-1c0.7-0.3,1.4-0.3,2.1,0
			c2.9,1.4,5.9,2.7,8.8,4.1c0.7,0.3,1.4,0.3,2,0c2.9-1.4,5.9-2.7,8.8-4.1c0.7-0.3,1.4-0.3,2,0c0.8,0.4,1.5,0.7,2.3,1.1
			c0.1,0,0.2,0.1,0.3,0.2c0.2,0.2,0.2,0.4,0,0.6c-0.1,0.1-0.2,0.1-0.3,0.2c-4.4,2.1-8.8,4.1-13.2,6.2C30.7,36.7,30.1,36.9,30,36.9z"
			/>
	</g>
</g>
</svg>
