<?xml version="1.0" encoding="utf-8"?>
<!-- Generator: Adobe Illustrator 21.0.2, SVG Export Plug-In . SVG Version: 6.00 Build 0)  -->
<svg version="1.1" id="Layer_1" xmlns="http://www.w3.org/2000/svg" xmlns:xlink="http://www.w3.org/1999/xlink" x="0px" y="0px"
	 viewBox="0 0 30 30" style="enable-background:new 0 0 30 30;" xml:space="preserve">
<style type="text/css">
	.st0{fill:#3D5A98;}
	.st1{fill:#005CFF;}
	.st2{fill-rule:evenodd;clip-rule:evenodd;fill:#FF6600;}
	.st3{fill:#007EE5;}
	.st4{fill:#DC4E41;}
	.st5{fill:#2EDE73;}
	.st6{fill:#405DE6;}
	.st7{fill:#EA4C89;}
	.st8{fill:#0084FF;}
	.st9{fill:#1D66D8;}
	.st10{fill:#FB0A84;}
	.st11{fill:#0077B5;}
	.st12{fill:#FF4500;}
	.st13{fill:#1DA1F2;}
	.st14{fill:#303D4D;}
	.st15{fill:#BD081C;}
	.st16{fill:#F9EC31;}
	.st17{fill:#00AFF0;}
	.st18{fill:#32B8E8;}
	.st19{fill:#CD201F;}
	.st20{fill:#F29100;}
	.st21{fill:#00749A;}
	.st22{fill:#00AB6C;}
	.st23{fill:#FFFFFF;}
	.st24{fill-rule:evenodd;clip-rule:evenodd;fill:#FFFFFF;}
	.st25{fill:none;}
</style>
<g id="XMLID_5243_">
	<path id="Dribbble_5_" class="st7" d="M28.8,9.2c-0.4-0.9-0.8-1.7-1.4-2.5c-0.5-0.8-1.2-1.5-1.8-2.2c-0.7-0.7-1.4-1.3-2.2-1.8
		c-0.8-0.5-1.7-1-2.5-1.4C19.9,0.8,19,0.5,18,0.3C17,0.1,16,0,15,0c-1,0-2,0.1-3,0.3c-1,0.2-1.9,0.5-2.8,0.9C8.3,1.6,7.4,2,6.6,2.6
		C5.8,3.1,5.1,3.7,4.4,4.4C3.7,5.1,3.1,5.8,2.6,6.6C2,7.4,1.6,8.3,1.2,9.2C0.8,10.1,0.5,11,0.3,12C0.1,13,0,14,0,15c0,1,0.1,2,0.3,3
		c0.2,1,0.5,1.9,0.9,2.8c0.4,0.9,0.8,1.7,1.4,2.6c0.5,0.8,1.2,1.5,1.8,2.2c0.7,0.7,1.4,1.3,2.2,1.8c0.8,0.5,1.7,1,2.5,1.4
		c0.9,0.4,1.9,0.7,2.8,0.9c1,0.2,2,0.3,3,0.3c1,0,2-0.1,3-0.3c1-0.2,1.9-0.5,2.8-0.9c0.9-0.4,1.7-0.8,2.5-1.4
		c0.8-0.5,1.5-1.2,2.2-1.8c0.7-0.7,1.3-1.4,1.8-2.2c0.5-0.8,1-1.7,1.4-2.6c0.4-0.9,0.7-1.9,0.9-2.8c0.2-1,0.3-2,0.3-3
		c0-1-0.1-2-0.3-3C29.5,11,29.2,10.1,28.8,9.2z M15,2.2c3.2,0,6.2,1.2,8.5,3.2c0,0-1.9,2.8-6.7,4.6c-2.2-4-4.6-7.2-4.8-7.5
		C12.9,2.3,14,2.2,15,2.2z M11.9,2.6L11.9,2.6C11.9,2.6,11.9,2.6,11.9,2.6C11.9,2.6,11.9,2.6,11.9,2.6z M9.5,3.4
		c0.2,0.2,2.5,3.4,4.8,7.4c-6.2,1.6-11.5,1.6-11.8,1.6C3.3,8.4,6,5.1,9.5,3.4z M5.5,23.6c-2-2.3-3.3-5.3-3.3-8.6c0-0.1,0-0.3,0-0.4
		c0.2,0,6.6,0.1,13.2-1.8c0.4,0.7,0.7,1.4,1,2.2c-0.2,0-0.3,0.1-0.5,0.2C9,17.3,5.5,23.6,5.5,23.6L5.5,23.6z M15,27.8
		c-3,0-5.8-1.1-8-2.8c0,0-0.1-0.1-0.2-0.1C6.9,24.9,7,25,7,25c0.1,0.1,0.1,0.1,0.1,0.1s2.5-5.4,10.1-8c0,0,0.1,0,0.1,0
		c1.8,4.7,2.5,8.6,2.7,9.7C18.5,27.4,16.8,27.8,15,27.8z M22.2,25.6c-0.1-0.8-0.8-4.5-2.5-9.1c4.1-0.7,7.7,0.5,8,0.6
		C27.1,20.6,25,23.7,22.2,25.6z M18.9,14.5c-0.1-0.2-0.2-0.4-0.3-0.7c-0.3-0.6-0.6-1.2-0.9-1.9c5.1-2.1,7.1-5,7.1-5.1
		c1.8,2.2,2.9,5,2.9,8C27.6,14.8,23.3,13.9,18.9,14.5z"/>
</g>
</svg>
