<?xml version="1.0" encoding="utf-8"?>
<!-- Generator: Adobe Illustrator 21.0.2, SVG Export Plug-In . SVG Version: 6.00 Build 0)  -->
<svg version="1.1" id="Layer_1" xmlns="http://www.w3.org/2000/svg" xmlns:xlink="http://www.w3.org/1999/xlink" x="0px" y="0px"
	 viewBox="0 0 63 63" style="enable-background:new 0 0 63 63;" xml:space="preserve">
<style type="text/css">
	.st0{fill:#3D5A98;}
	.st1{fill:#FFFFFF;}
	.st2{fill:#005CFF;}
	.st3{fill:#FF6600;}
	.st4{fill-rule:evenodd;clip-rule:evenodd;fill:#FFFFFF;}
	.st5{fill:#007EE5;}
	.st6{fill:#DC4E41;}
	.st7{fill:#2EDE73;}
	.st8{fill:#405DE6;}
	.st9{fill:#EA4C89;}
	.st10{fill:#0084FF;}
	.st11{fill:#1D66D8;}
	.st12{fill:#0077B5;}
	.st13{fill:#FF4500;}
	.st14{fill:none;}
	.st15{fill:#1DA1F2;}
	.st16{fill:#303D4D;}
	.st17{fill:#BD081C;}
	.st18{fill:#F9EC31;}
	.st19{fill:#00AFF0;}
	.st20{fill:#32B8E8;}
	.st21{fill:#CD201F;}
	.st22{fill:#F29100;}
	.st23{fill:#00749A;}
	.st24{fill:#00AB6C;}
	.st25{fill-rule:evenodd;clip-rule:evenodd;fill:#FF6600;}
	.st26{fill:#FB0A84;}
</style>
<g id="XMLID_392_">
	<g id="XMLID_5073_">
		<path id="XMLID_6604_" class="st5" d="M63,63H0V0h63V63z M3,60h57V3H3V60z"/>
	</g>
	<g id="XMLID_5036_">
		<g id="XMLID_5037_">
			<polygon id="XMLID_5072_" class="st5" points="24.9,16.5 15.4,22.6 21.9,27.9 31.5,22 			"/>
			<polygon id="XMLID_5071_" class="st5" points="15.4,33.1 24.9,39.4 31.5,33.9 21.9,27.9 			"/>
			<polygon id="XMLID_5062_" class="st5" points="31.5,33.9 38.2,39.4 47.6,33.2 41.1,27.9 			"/>
			<polygon id="XMLID_5060_" class="st5" points="47.6,22.7 38.2,16.5 31.5,22 41.1,27.9 			"/>
			<polygon id="XMLID_5059_" class="st5" points="31.5,35 24.9,40.6 22,38.7 22,40.8 31.5,46.5 41,40.8 41,38.7 38.2,40.6 			"/>
		</g>
	</g>
</g>
</svg>
