<?xml version="1.0" encoding="utf-8"?>
<!-- Generator: Adobe Illustrator 21.0.2, SVG Export Plug-In . SVG Version: 6.00 Build 0)  -->
<svg version="1.1" id="Layer_1" xmlns="http://www.w3.org/2000/svg" xmlns:xlink="http://www.w3.org/1999/xlink" x="0px" y="0px"
	 viewBox="0 0 63 63" style="enable-background:new 0 0 63 63;" xml:space="preserve">
<style type="text/css">
	.st0{fill:#3D5A98;}
	.st1{fill:#FFFFFF;}
	.st2{fill:#005CFF;}
	.st3{fill:#FF6600;}
	.st4{fill-rule:evenodd;clip-rule:evenodd;fill:#FFFFFF;}
	.st5{fill:#007EE5;}
	.st6{fill:#DC4E41;}
	.st7{fill:#2EDE73;}
	.st8{fill:#405DE6;}
	.st9{fill:#EA4C89;}
	.st10{fill:#0084FF;}
	.st11{fill:#1D66D8;}
	.st12{fill:#0077B5;}
	.st13{fill:#FF4500;}
	.st14{fill:none;}
	.st15{fill:#1DA1F2;}
	.st16{fill:#303D4D;}
	.st17{fill:#BD081C;}
	.st18{fill:#F9EC31;}
	.st19{fill:#00AFF0;}
	.st20{fill:#32B8E8;}
	.st21{fill:#CD201F;}
	.st22{fill:#F29100;}
	.st23{fill:#00749A;}
	.st24{fill:#00AB6C;}
	.st25{fill-rule:evenodd;clip-rule:evenodd;fill:#FF6600;}
	.st26{fill:#FB0A84;}
</style>
<g id="XMLID_698_">
	<g id="XMLID_5028_">
		<path id="XMLID_6600_" class="st6" d="M63,63H0V0h63V63z M3,60h57V3H3V60z"/>
	</g>
	<g id="XMLID_5025_">
		<path id="XMLID_5027_" class="st6" d="M24.3,29v5c0,0,4.8,0,6.7,0c-1.1,3.2-2.7,5-6.7,5c-4.1,0-7.3-3.3-7.3-7.4s3.2-7.4,7.3-7.4
			c2.2,0,3.6,0.8,4.8,1.8c1-1,0.9-1.2,3.6-3.6c-2.2-2-5.2-3.3-8.4-3.3c-6.9,0-12.5,5.6-12.5,12.5c0,6.9,5.6,12.5,12.5,12.5
			c10.3,0,12.8-9,12-15H24.3z"/>
		<polygon id="XMLID_5026_" class="st6" points="46.8,29.3 46.8,24.9 43.7,24.9 43.7,29.3 39.3,29.3 39.3,32.4 43.7,32.4 43.7,36.8 
			46.8,36.8 46.8,32.4 51.1,32.4 51.1,29.3 		"/>
	</g>
</g>
</svg>
