<?xml version="1.0" encoding="utf-8"?>
<!-- Generator: Adobe Illustrator 21.0.2, SVG Export Plug-In . SVG Version: 6.00 Build 0)  -->
<svg version="1.1" id="Layer_1" xmlns="http://www.w3.org/2000/svg" xmlns:xlink="http://www.w3.org/1999/xlink" x="0px" y="0px"
	 viewBox="0 0 39.3 25" style="enable-background:new 0 0 39.3 25;" xml:space="preserve">
<style type="text/css">
	.st0{fill:#3D5A98;}
	.st1{fill:#005CFF;}
	.st2{fill-rule:evenodd;clip-rule:evenodd;fill:#FF6600;}
	.st3{fill:#007EE5;}
	.st4{fill:#DC4E41;}
	.st5{fill:#2EDE73;}
	.st6{fill:#405DE6;}
	.st7{fill:#EA4C89;}
	.st8{fill:#0084FF;}
	.st9{fill:#1D66D8;}
	.st10{fill:#FB0A84;}
	.st11{fill:#0077B5;}
	.st12{fill:#FF4500;}
	.st13{fill:#1DA1F2;}
	.st14{fill:#303D4D;}
	.st15{fill:#BD081C;}
	.st16{fill:#F9EC31;}
	.st17{fill:#00AFF0;}
	.st18{fill:#32B8E8;}
	.st19{fill:#CD201F;}
	.st20{fill:#F29100;}
	.st21{fill:#00749A;}
	.st22{fill:#00AB6C;}
	.st23{fill:#FFFFFF;}
	.st24{fill-rule:evenodd;clip-rule:evenodd;fill:#FFFFFF;}
	.st25{fill:none;}
</style>
<g id="XMLID_5270_">
	<path id="XMLID_5272_" class="st4" d="M12.5,10v5c0,0,4.8,0,6.7,0c-1.1,3.2-2.7,5-6.7,5c-4.1,0-7.3-3.3-7.3-7.4s3.2-7.4,7.3-7.4
		c2.2,0,3.6,0.8,4.8,1.8c1-1,0.9-1.2,3.6-3.6c-2.2-2-5.2-3.3-8.4-3.3C5.6,0,0,5.6,0,12.5C0,19.4,5.6,25,12.5,25c10.3,0,12.8-9,12-15
		H12.5z"/>
	<polygon id="XMLID_5271_" class="st4" points="35,10.3 35,5.9 31.9,5.9 31.9,10.3 27.4,10.3 27.4,13.4 31.9,13.4 31.9,17.8 
		35,17.8 35,13.4 39.3,13.4 39.3,10.3 	"/>
</g>
</svg>
