<?xml version="1.0" encoding="utf-8"?>
<!-- Generator: Adobe Illustrator 21.0.2, SVG Export Plug-In . SVG Version: 6.00 Build 0)  -->
<svg version="1.1" id="Layer_1" xmlns="http://www.w3.org/2000/svg" xmlns:xlink="http://www.w3.org/1999/xlink" x="0px" y="0px"
	 viewBox="0 0 34.9 30" style="enable-background:new 0 0 34.9 30;" xml:space="preserve">
<style type="text/css">
	.st0{fill:#3D5A98;}
	.st1{fill:#005CFF;}
	.st2{fill-rule:evenodd;clip-rule:evenodd;fill:#FF6600;}
	.st3{fill:#007EE5;}
	.st4{fill:#DC4E41;}
	.st5{fill:#2EDE73;}
	.st6{fill:#405DE6;}
	.st7{fill:#EA4C89;}
	.st8{fill:#0084FF;}
	.st9{fill:#1D66D8;}
	.st10{fill:#FB0A84;}
	.st11{fill:#0077B5;}
	.st12{fill:#FF4500;}
	.st13{fill:#1DA1F2;}
	.st14{fill:#303D4D;}
	.st15{fill:#BD081C;}
	.st16{fill:#F9EC31;}
	.st17{fill:#00AFF0;}
	.st18{fill:#32B8E8;}
	.st19{fill:#CD201F;}
	.st20{fill:#F29100;}
	.st21{fill:#00749A;}
	.st22{fill:#00AB6C;}
	.st23{fill:#FFFFFF;}
	.st24{fill-rule:evenodd;clip-rule:evenodd;fill:#FFFFFF;}
	.st25{fill:none;}
</style>
<g id="XMLID_4564_">
	<path id="XMLID_4840_" class="st22" d="M34.6,5.6L23.6,0c-0.1,0-0.1,0-0.2,0c0,0,0,0,0,0c-0.1,0-0.3,0.1-0.3,0.2l-6.8,11.1
		l7.6,12.3L34.7,5.9C34.8,5.8,34.7,5.6,34.6,5.6z"/>
	<polygon id="XMLID_4839_" class="st22" points="12.6,7.4 12.6,19.3 23.2,24.6 	"/>
	<path id="XMLID_4838_" class="st22" d="M24.2,25l9.7,4.9c0.5,0.3,1,0,1-0.6V7.6L24.2,25z"/>
	<path id="XMLID_4761_" class="st22" d="M11.5,5.6L1.3,0.5L0.6,0.2c-0.1,0-0.2-0.1-0.3-0.1c-0.1,0-0.2,0-0.3,0.1C0,0.3,0,0.5,0,0.6
		v23.3c0,0.4,0.3,0.9,0.6,1l10,5C10.8,30,10.9,30,11,30c0.3,0,0.6-0.3,0.6-0.7V5.8C11.6,5.8,11.6,5.7,11.5,5.6z"/>
</g>
</svg>
