<?xml version="1.0" encoding="utf-8"?>
<!-- Generator: Adobe Illustrator 21.0.2, SVG Export Plug-In . SVG Version: 6.00 Build 0)  -->
<svg version="1.1" id="Layer_1" xmlns="http://www.w3.org/2000/svg" xmlns:xlink="http://www.w3.org/1999/xlink" x="0px" y="0px"
	 viewBox="0 0 60 60" style="enable-background:new 0 0 60 60;" xml:space="preserve">
<style type="text/css">
	.st0{fill:#3D5A98;}
	.st1{fill:#FFFFFF;}
	.st2{fill:#005CFF;}
	.st3{fill:#FF6600;}
	.st4{fill-rule:evenodd;clip-rule:evenodd;fill:#FFFFFF;}
	.st5{fill:#007EE5;}
	.st6{fill:#DC4E41;}
	.st7{fill:#2EDE73;}
	.st8{fill:#405DE6;}
	.st9{fill:#EA4C89;}
	.st10{fill:#0084FF;}
	.st11{fill:#1D66D8;}
	.st12{fill:#0077B5;}
	.st13{fill:#FF4500;}
	.st14{fill:none;}
	.st15{fill:#1DA1F2;}
	.st16{fill:#303D4D;}
	.st17{fill:#BD081C;}
	.st18{fill:#F9EC31;}
	.st19{fill:#00AFF0;}
	.st20{fill:#32B8E8;}
	.st21{fill:#CD201F;}
	.st22{fill:#F29100;}
	.st23{fill:#00749A;}
	.st24{fill:#00AB6C;}
	.st25{fill-rule:evenodd;clip-rule:evenodd;fill:#FF6600;}
	.st26{fill:#FB0A84;}
</style>
<g id="XMLID_372_">
	<path id="XMLID_728_" class="st9" d="M30,60L30,60C13.4,60,0,46.6,0,30v0C0,13.4,13.4,0,30,0h0c16.6,0,30,13.4,30,30v0
		C60,46.6,46.6,60,30,60z"/>
	<g id="XMLID_719_">
		<path id="Dribbble_16_" class="st1" d="M43.8,24.2c-0.4-0.9-0.8-1.7-1.4-2.5c-0.5-0.8-1.2-1.5-1.8-2.2c-0.7-0.7-1.4-1.3-2.2-1.8
			c-0.8-0.5-1.7-1-2.5-1.4c-0.9-0.4-1.9-0.7-2.8-0.9c-1-0.2-2-0.3-3-0.3c-1,0-2,0.1-3,0.3c-1,0.2-1.9,0.5-2.8,0.9
			c-0.9,0.4-1.7,0.8-2.5,1.4c-0.8,0.5-1.5,1.2-2.2,1.8c-0.7,0.7-1.3,1.4-1.8,2.2c-0.5,0.8-1,1.7-1.4,2.5c-0.4,0.9-0.7,1.9-0.9,2.8
			c-0.2,1-0.3,2-0.3,3c0,1,0.1,2,0.3,3c0.2,1,0.5,1.9,0.9,2.8c0.4,0.9,0.8,1.7,1.4,2.6c0.5,0.8,1.2,1.5,1.8,2.2
			c0.7,0.7,1.4,1.3,2.2,1.8c0.8,0.5,1.7,1,2.5,1.4c0.9,0.4,1.9,0.7,2.8,0.9c1,0.2,2,0.3,3,0.3c1,0,2-0.1,3-0.3
			c1-0.2,1.9-0.5,2.8-0.9c0.9-0.4,1.7-0.8,2.5-1.4c0.8-0.5,1.5-1.2,2.2-1.8c0.7-0.7,1.3-1.4,1.8-2.2c0.5-0.8,1-1.7,1.4-2.6
			c0.4-0.9,0.7-1.9,0.9-2.8c0.2-1,0.3-2,0.3-3c0-1-0.1-2-0.3-3C44.5,26,44.2,25.1,43.8,24.2z M30,17.2c3.2,0,6.2,1.2,8.5,3.2
			c0,0-1.9,2.8-6.7,4.6c-2.2-4-4.6-7.2-4.8-7.5C27.9,17.3,29,17.2,30,17.2z M26.9,17.6C26.9,17.6,26.9,17.6,26.9,17.6
			C26.9,17.6,26.9,17.6,26.9,17.6C26.9,17.6,26.9,17.6,26.9,17.6z M24.5,18.4c0.2,0.2,2.5,3.4,4.8,7.4c-6.2,1.6-11.5,1.6-11.8,1.6
			C18.3,23.4,21,20.1,24.5,18.4z M20.5,38.6c-2-2.3-3.3-5.3-3.3-8.6c0-0.1,0-0.3,0-0.4c0.2,0,6.6,0.1,13.2-1.8
			c0.4,0.7,0.7,1.4,1,2.2c-0.2,0-0.3,0.1-0.5,0.2C24,32.3,20.5,38.6,20.5,38.6C20.5,38.6,20.5,38.6,20.5,38.6z M30,42.8
			c-3,0-5.8-1.1-8-2.8c0,0-0.1-0.1-0.2-0.1C21.9,39.9,22,40,22,40c0.1,0.1,0.1,0.1,0.1,0.1s2.5-5.4,10.1-8c0,0,0.1,0,0.1,0
			c1.8,4.7,2.5,8.6,2.7,9.7C33.5,42.4,31.8,42.8,30,42.8z M37.2,40.6c-0.1-0.8-0.8-4.5-2.5-9.1c4.1-0.7,7.7,0.5,8,0.6
			C42.1,35.6,40,38.7,37.2,40.6z M33.9,29.5c-0.1-0.2-0.2-0.4-0.3-0.7c-0.3-0.6-0.6-1.2-0.9-1.9c5.1-2.1,7.1-5,7.1-5.1
			c1.8,2.2,2.9,5,2.9,8C42.6,29.8,38.3,28.9,33.9,29.5z"/>
	</g>
</g>
</svg>
