<?xml version="1.0" encoding="utf-8"?>
<!-- Generator: Adobe Illustrator 21.0.2, SVG Export Plug-In . SVG Version: 6.00 Build 0)  -->
<svg version="1.1" id="Layer_1" xmlns="http://www.w3.org/2000/svg" xmlns:xlink="http://www.w3.org/1999/xlink" x="0px" y="0px"
	 viewBox="0 0 63 63" style="enable-background:new 0 0 63 63;" xml:space="preserve">
<style type="text/css">
	.st0{fill:#3D5A98;}
	.st1{fill:#FFFFFF;}
	.st2{fill:#005CFF;}
	.st3{fill:#FF6600;}
	.st4{fill-rule:evenodd;clip-rule:evenodd;fill:#FFFFFF;}
	.st5{fill:#007EE5;}
	.st6{fill:#DC4E41;}
	.st7{fill:#2EDE73;}
	.st8{fill:#405DE6;}
	.st9{fill:#EA4C89;}
	.st10{fill:#0084FF;}
	.st11{fill:#1D66D8;}
	.st12{fill:#0077B5;}
	.st13{fill:#FF4500;}
	.st14{fill:none;}
	.st15{fill:#1DA1F2;}
	.st16{fill:#303D4D;}
	.st17{fill:#BD081C;}
	.st18{fill:#F9EC31;}
	.st19{fill:#00AFF0;}
	.st20{fill:#32B8E8;}
	.st21{fill:#CD201F;}
	.st22{fill:#F29100;}
	.st23{fill:#00749A;}
	.st24{fill:#00AB6C;}
	.st25{fill-rule:evenodd;clip-rule:evenodd;fill:#FF6600;}
	.st26{fill:#FB0A84;}
</style>
<g id="XMLID_553_">
	<g id="XMLID_4983_">
		<path id="XMLID_6586_" class="st10" d="M63,63H0V0h63V63z M3,60h57V3H3V60z"/>
	</g>
	<g id="Facebook_Messenger_3_">
		<g id="XMLID_4979_">
			<path id="XMLID_4980_" class="st10" d="M31.5,16.5c-8.2,0-14.9,6.2-14.9,13.9c0,4.4,2.2,8.3,5.6,10.8v5.3l5.1-2.8
				c1.4,0.4,2.8,0.6,4.3,0.6c8.2,0,14.9-6.2,14.9-13.9S39.7,16.5,31.5,16.5z M33,35.2l-3.8-4.1l-7.4,4.1l8.1-8.7l3.9,4.1l7.3-4.1
				L33,35.2z"/>
		</g>
	</g>
</g>
</svg>
