<?xml version="1.0" encoding="utf-8"?>
<!-- Generator: Adobe Illustrator 21.0.2, SVG Export Plug-In . SVG Version: 6.00 Build 0)  -->
<svg version="1.1" id="Layer_1" xmlns="http://www.w3.org/2000/svg" xmlns:xlink="http://www.w3.org/1999/xlink" x="0px" y="0px"
	 viewBox="0 0 25.5 30" style="enable-background:new 0 0 25.5 30;" xml:space="preserve">
<style type="text/css">
	.st0{fill:#3D5A98;}
	.st1{fill:#005CFF;}
	.st2{fill-rule:evenodd;clip-rule:evenodd;fill:#FF6600;}
	.st3{fill:#007EE5;}
	.st4{fill:#DC4E41;}
	.st5{fill:#2EDE73;}
	.st6{fill:#405DE6;}
	.st7{fill:#EA4C89;}
	.st8{fill:#0084FF;}
	.st9{fill:#1D66D8;}
	.st10{fill:#FB0A84;}
	.st11{fill:#0077B5;}
	.st12{fill:#FF4500;}
	.st13{fill:#1DA1F2;}
	.st14{fill:#303D4D;}
	.st15{fill:#BD081C;}
	.st16{fill:#F9EC31;}
	.st17{fill:#00AFF0;}
	.st18{fill:#32B8E8;}
	.st19{fill:#CD201F;}
	.st20{fill:#F29100;}
	.st21{fill:#00749A;}
	.st22{fill:#00AB6C;}
	.st23{fill:#FFFFFF;}
	.st24{fill-rule:evenodd;clip-rule:evenodd;fill:#FFFFFF;}
	.st25{fill:none;}
</style>
<path id="K_4_" class="st5" d="M9.7,10.2l5.5-8c1-1.5,2.4-2.3,4-2.3c1.3,0,2.5,0.5,3.5,1.4c1,1,1.5,2.1,1.5,3.4c0,1-0.3,1.8-0.8,2.6
	l-5,7.2l6.1,7.7c0.9,1.2,1.1,2.6,0.7,4.4c-0.1,0.2-0.2,0.4-0.3,0.6c-1.1,1.8-2.6,2.6-4.4,2.6c-1.5,0-2.6-0.5-3.4-1.5l-7.4-9.3v5.1
	c0,1.5-0.3,2.6-0.8,3.4C8.1,29.3,6.7,30,5,30c-1.6,0-2.8-0.5-3.7-1.6c-0.8-1-1.2-2.3-1.2-4v-19c0-1.6,0.4-2.8,1.3-3.9
	C2.1,0.5,3.3,0,4.9,0c1.5,0,2.7,0.5,3.7,1.6c0.5,0.6,0.9,1.2,1,1.8c0.1,0.4,0.1,1.1,0.1,2.1V10.2z"/>
</svg>
