<?xml version="1.0" encoding="utf-8"?>
<!-- Generator: Adobe Illustrator 21.0.2, SVG Export Plug-In . SVG Version: 6.00 Build 0)  -->
<svg version="1.1" id="Layer_1" xmlns="http://www.w3.org/2000/svg" xmlns:xlink="http://www.w3.org/1999/xlink" x="0px" y="0px"
	 viewBox="0 0 63 63" style="enable-background:new 0 0 63 63;" xml:space="preserve">
<style type="text/css">
	.st0{fill:#3D5A98;}
	.st1{fill:#FFFFFF;}
	.st2{fill:#005CFF;}
	.st3{fill:#FF6600;}
	.st4{fill-rule:evenodd;clip-rule:evenodd;fill:#FFFFFF;}
	.st5{fill:#007EE5;}
	.st6{fill:#DC4E41;}
	.st7{fill:#2EDE73;}
	.st8{fill:#405DE6;}
	.st9{fill:#EA4C89;}
	.st10{fill:#0084FF;}
	.st11{fill:#1D66D8;}
	.st12{fill:#0077B5;}
	.st13{fill:#FF4500;}
	.st14{fill:none;}
	.st15{fill:#1DA1F2;}
	.st16{fill:#303D4D;}
	.st17{fill:#BD081C;}
	.st18{fill:#F9EC31;}
	.st19{fill:#00AFF0;}
	.st20{fill:#32B8E8;}
	.st21{fill:#CD201F;}
	.st22{fill:#F29100;}
	.st23{fill:#00749A;}
	.st24{fill:#00AB6C;}
	.st25{fill-rule:evenodd;clip-rule:evenodd;fill:#FF6600;}
	.st26{fill:#FB0A84;}
</style>
<g id="XMLID_220_">
	<g id="XMLID_4944_">
		<path id="XMLID_6564_" class="st12" d="M63,63H0V0h63V63z M3,60h57V3H3V60z"/>
	</g>
	<g id="XMLID_4939_">
		<path id="XMLID_4941_" class="st12" d="M20.1,16.5c2,0,3.6,1.6,3.6,3.6c0,2-1.6,3.6-3.6,3.6c-2,0-3.6-1.6-3.6-3.6
			C16.5,18.1,18.1,16.5,20.1,16.5L20.1,16.5z M17,26.5h6.2v20H17V26.5z"/>
		<path id="XMLID_4940_" class="st12" d="M27.1,26.5h6v2.7h0.1C34,27.6,36,26,39.1,26c6.3,0,7.5,4.2,7.5,9.5v11h-6.2v-9.7
			c0-2.3,0-5.3-3.2-5.3c-3.2,0-3.7,2.5-3.7,5.1v9.9h-6.2V26.5"/>
	</g>
</g>
</svg>
