<?xml version="1.0" encoding="utf-8"?>
<!-- Generator: Adobe Illustrator 21.0.2, SVG Export Plug-In . SVG Version: 6.00 Build 0)  -->
<svg version="1.1" id="Layer_1" xmlns="http://www.w3.org/2000/svg" xmlns:xlink="http://www.w3.org/1999/xlink" x="0px" y="0px"
	 viewBox="0 0 63 63" style="enable-background:new 0 0 63 63;" xml:space="preserve">
<style type="text/css">
	.st0{fill:#3D5A98;}
	.st1{fill:#FFFFFF;}
	.st2{fill:#005CFF;}
	.st3{fill:#FF6600;}
	.st4{fill-rule:evenodd;clip-rule:evenodd;fill:#FFFFFF;}
	.st5{fill:#007EE5;}
	.st6{fill:#DC4E41;}
	.st7{fill:#2EDE73;}
	.st8{fill:#405DE6;}
	.st9{fill:#EA4C89;}
	.st10{fill:#0084FF;}
	.st11{fill:#1D66D8;}
	.st12{fill:#0077B5;}
	.st13{fill:#FF4500;}
	.st14{fill:none;}
	.st15{fill:#1DA1F2;}
	.st16{fill:#303D4D;}
	.st17{fill:#BD081C;}
	.st18{fill:#F9EC31;}
	.st19{fill:#00AFF0;}
	.st20{fill:#32B8E8;}
	.st21{fill:#CD201F;}
	.st22{fill:#F29100;}
	.st23{fill:#00749A;}
	.st24{fill:#00AB6C;}
	.st25{fill-rule:evenodd;clip-rule:evenodd;fill:#FF6600;}
	.st26{fill:#FB0A84;}
</style>
<g id="XMLID_295_">
	<g id="XMLID_4937_">
		<path id="XMLID_6561_" class="st13" d="M63,63H0V0h63V63z M3,60h57V3H3V60z"/>
	</g>
	<g id="XMLID_4909_">
		<path id="XMLID_4916_" class="st13" d="M49.3,31.1c0-2.3-1.8-4.1-4.1-4.1c-1,0-1.9,0.4-2.7,1c-2.7-1.7-6.2-2.8-10.1-2.9l2.3-6.6
			l5.8,1.4c0,1.8,1.5,3.3,3.3,3.3c1.8,0,3.3-1.5,3.3-3.3s-1.5-3.3-3.3-3.3c-1.4,0-2.6,0.9-3.1,2.1l-6.9-1.6L31,25.1
			c-4.1,0.1-7.8,1.2-10.5,2.9c-0.7-0.6-1.7-1-2.7-1c-2.3,0-4.1,1.8-4.1,4.1c0,1.4,0.7,2.7,1.9,3.4c-0.1,0.4-0.1,0.8-0.1,1.2
			c0,5.9,7.2,10.7,16,10.7c8.8,0,16-4.8,16-10.7c0-0.4,0-0.8-0.1-1.2C48.5,33.8,49.3,32.5,49.3,31.1z M43.9,17.8
			c1.1,0,2.1,0.9,2.1,2.1c0,1.1-0.9,2.1-2.1,2.1s-2.1-0.9-2.1-2.1C41.8,18.7,42.7,17.8,43.9,17.8z M26.4,31.4c1.4,0,2.5,1.1,2.5,2.5
			c0,1.4-1.1,2.5-2.5,2.5c-1.4,0-2.5-1.1-2.5-2.5C23.9,32.5,25,31.4,26.4,31.4z M25.7,39.8c0.3-0.2,0.7-0.2,0.9,0.1
			c0,0,1.4,1.5,4.8,1.5c3.5,0,5-1.5,5-1.5c0.2-0.3,0.7-0.3,0.9,0c0.3,0.2,0.3,0.6,0,0.9c-0.1,0.1-1.9,1.9-6,1.9
			c-4.1,0-5.7-1.9-5.8-1.9C25.4,40.4,25.4,40,25.7,39.8z M36.9,36.4c-1.4,0-2.5-1.1-2.5-2.5c0-1.4,1.1-2.5,2.5-2.5
			c1.4,0,2.5,1.1,2.5,2.5C39.4,35.3,38.3,36.4,36.9,36.4z M15,31.1c0-1.5,1.3-2.8,2.8-2.8c0.6,0,1.1,0.2,1.6,0.5
			c-1.6,1.3-2.8,2.8-3.4,4.4C15.4,32.7,15,31.9,15,31.1z M47,33.2c-0.6-1.7-1.8-3.2-3.4-4.4c0.5-0.3,1-0.5,1.6-0.5
			c1.5,0,2.8,1.3,2.8,2.8C48,31.9,47.6,32.7,47,33.2z"/>
	</g>
</g>
</svg>
