<?xml version="1.0" encoding="utf-8"?>
<!-- Generator: Adobe Illustrator 21.0.2, SVG Export Plug-In . SVG Version: 6.00 Build 0)  -->
<svg version="1.1" id="Layer_1" xmlns="http://www.w3.org/2000/svg" xmlns:xlink="http://www.w3.org/1999/xlink" x="0px" y="0px"
	 viewBox="0 0 60 60" style="enable-background:new 0 0 60 60;" xml:space="preserve">
<style type="text/css">
	.st0{fill:#3D5A98;}
	.st1{fill:#FFFFFF;}
	.st2{fill:#005CFF;}
	.st3{fill:#FF6600;}
	.st4{fill-rule:evenodd;clip-rule:evenodd;fill:#FFFFFF;}
	.st5{fill:#007EE5;}
	.st6{fill:#DC4E41;}
	.st7{fill:#2EDE73;}
	.st8{fill:#405DE6;}
	.st9{fill:#EA4C89;}
	.st10{fill:#0084FF;}
	.st11{fill:#1D66D8;}
	.st12{fill:#0077B5;}
	.st13{fill:#FF4500;}
	.st14{fill:none;}
	.st15{fill:#1DA1F2;}
	.st16{fill:#303D4D;}
	.st17{fill:#BD081C;}
	.st18{fill:#F9EC31;}
	.st19{fill:#00AFF0;}
	.st20{fill:#32B8E8;}
	.st21{fill:#CD201F;}
	.st22{fill:#F29100;}
	.st23{fill:#00749A;}
	.st24{fill:#00AB6C;}
	.st25{fill-rule:evenodd;clip-rule:evenodd;fill:#FF6600;}
	.st26{fill:#FB0A84;}
</style>
<g id="XMLID_6527_">
	<path id="XMLID_569_" class="st23" d="M30,60L30,60C13.4,60,0,46.6,0,30v0C0,13.4,13.4,0,30,0h0c16.6,0,30,13.4,30,30v0
		C60,46.6,46.6,60,30,60z"/>
	<g id="XMLID_193_">
		<path id="XMLID_555_" class="st1" d="M17.1,30c0,5.1,3,9.5,7.3,11.6l-6.1-16.8C17.5,26.4,17.1,28.1,17.1,30z"/>
		<path id="XMLID_552_" class="st1" d="M38.7,29.4c0-1.6-0.6-2.7-1.1-3.5c-0.7-1.1-1.3-2-1.3-3c0-1.2,0.9-2.3,2.2-2.3
			c0.1,0,0.1,0,0.2,0c-2.3-2.1-5.3-3.4-8.7-3.4c-4.5,0-8.5,2.3-10.8,5.8c0.3,0,0.6,0,0.8,0c1.3,0,3.4-0.2,3.4-0.2
			c0.7,0,0.8,1,0.1,1.1c0,0-0.7,0.1-1.5,0.1l4.7,13.9l2.8-8.4l-2-5.5c-0.7,0-1.3-0.1-1.3-0.1c-0.7,0-0.6-1.1,0.1-1.1
			c0,0,2.1,0.2,3.4,0.2c1.3,0,3.4-0.2,3.4-0.2c0.7,0,0.8,1,0.1,1.1c0,0-0.7,0.1-1.5,0.1l4.7,13.8l1.3-4.3
			C38.3,31.7,38.7,30.5,38.7,29.4z"/>
		<path id="XMLID_547_" class="st1" d="M30.2,31.1l-3.9,11.2c1.2,0.3,2.4,0.5,3.6,0.5c1.5,0,2.9-0.3,4.3-0.7c0-0.1-0.1-0.1-0.1-0.2
			L30.2,31.1z"/>
		<path id="XMLID_420_" class="st1" d="M41.3,23.8c0.1,0.4,0.1,0.8,0.1,1.3c0,1.3-0.2,2.8-1,4.6l-3.9,11.4c3.8-2.2,6.4-6.4,6.4-11.1
			C42.9,27.8,42.3,25.7,41.3,23.8z"/>
		<path id="XMLID_359_" class="st1" d="M30,15c-8.3,0-15,6.7-15,15c0,8.3,6.7,15,15,15c8.3,0,15-6.7,15-15C45,21.7,38.3,15,30,15z
			 M30,44.3c-7.9,0-14.3-6.4-14.3-14.3c0-7.9,6.4-14.3,14.3-14.3c7.9,0,14.3,6.4,14.3,14.3C44.3,37.9,37.9,44.3,30,44.3z"/>
	</g>
</g>
</svg>
