<?xml version="1.0" encoding="utf-8"?>
<!-- Generator: Adobe Illustrator 21.0.2, SVG Export Plug-In . SVG Version: 6.00 Build 0)  -->
<svg version="1.1" id="Layer_1" xmlns="http://www.w3.org/2000/svg" xmlns:xlink="http://www.w3.org/1999/xlink" x="0px" y="0px"
	 viewBox="0 0 62 62" style="enable-background:new 0 0 62 62;" xml:space="preserve">
<style type="text/css">
	.st0{fill:#3D5A98;}
	.st1{fill:#FFFFFF;}
	.st2{fill:#005CFF;}
	.st3{fill:#FF6600;}
	.st4{fill-rule:evenodd;clip-rule:evenodd;fill:#FFFFFF;}
	.st5{fill:#007EE5;}
	.st6{fill:#DC4E41;}
	.st7{fill:#2EDE73;}
	.st8{fill:#405DE6;}
	.st9{fill:#EA4C89;}
	.st10{fill:#0084FF;}
	.st11{fill:#1D66D8;}
	.st12{fill:#0077B5;}
	.st13{fill:#FF4500;}
	.st14{fill:none;}
	.st15{fill:#1DA1F2;}
	.st16{fill:#303D4D;}
	.st17{fill:#BD081C;}
	.st18{fill:#F9EC31;}
	.st19{fill:#00AFF0;}
	.st20{fill:#32B8E8;}
	.st21{fill:#CD201F;}
	.st22{fill:#F29100;}
	.st23{fill:#00749A;}
	.st24{fill:#00AB6C;}
	.st25{fill-rule:evenodd;clip-rule:evenodd;fill:#FF6600;}
	.st26{fill:#FB0A84;}
</style>
<g id="XMLID_178_">
	<g id="XMLID_5701_">
		<path id="XMLID_6702_" class="st3" d="M31,62C13.9,62,0,48.1,0,31S13.9,0,31,0s31,13.9,31,31S48.1,62,31,62z M31,2C15,2,2,15,2,31
			s13,29,29,29s29-13,29-29S47,2,31,2z"/>
	</g>
	<path id="XMLID_5697_" class="st25" d="M25.5,16l6.3,0c4,0,8.7,4.5,8.7,8.8v0.8c0,0.9,0.8,1.8,2.1,1.8H44c1.6,0,2,0.9,2,2.2v7.2
		c0,5-4.3,9.2-9.2,9.2l-12,0c-4.4,0-8.7-4.1-8.7-9.1V25.5C16,20.2,20.2,16,25.5,16L25.5,16z M25.5,23.9H31c1,0,1.7,0.8,1.7,1.7
		c0,1-0.8,1.7-1.7,1.7h-5.4c-1,0-1.7-0.8-1.7-1.7C23.8,24.7,24.6,23.9,25.5,23.9L25.5,23.9z M25.5,34.7h10.8c1,0,1.7,0.8,1.7,1.7
		c0,1-0.8,1.7-1.7,1.7H25.5c-1,0-1.7-0.8-1.7-1.7C23.8,35.5,24.6,34.7,25.5,34.7L25.5,34.7z"/>
</g>
</svg>
