<?xml version="1.0" encoding="utf-8"?>
<!-- Generator: Adobe Illustrator 21.0.2, SVG Export Plug-In . SVG Version: 6.00 Build 0)  -->
<svg version="1.1" id="Layer_1" xmlns="http://www.w3.org/2000/svg" xmlns:xlink="http://www.w3.org/1999/xlink" x="0px" y="0px"
	 viewBox="0 0 62 62" style="enable-background:new 0 0 62 62;" xml:space="preserve">
<style type="text/css">
	.st0{fill:#3D5A98;}
	.st1{fill:#FFFFFF;}
	.st2{fill:#005CFF;}
	.st3{fill:#FF6600;}
	.st4{fill-rule:evenodd;clip-rule:evenodd;fill:#FFFFFF;}
	.st5{fill:#007EE5;}
	.st6{fill:#DC4E41;}
	.st7{fill:#2EDE73;}
	.st8{fill:#405DE6;}
	.st9{fill:#EA4C89;}
	.st10{fill:#0084FF;}
	.st11{fill:#1D66D8;}
	.st12{fill:#0077B5;}
	.st13{fill:#FF4500;}
	.st14{fill:none;}
	.st15{fill:#1DA1F2;}
	.st16{fill:#303D4D;}
	.st17{fill:#BD081C;}
	.st18{fill:#F9EC31;}
	.st19{fill:#00AFF0;}
	.st20{fill:#32B8E8;}
	.st21{fill:#CD201F;}
	.st22{fill:#F29100;}
	.st23{fill:#00749A;}
	.st24{fill:#00AB6C;}
	.st25{fill-rule:evenodd;clip-rule:evenodd;fill:#FF6600;}
	.st26{fill:#FB0A84;}
</style>
<g id="XMLID_267_">
	<g id="XMLID_5350_">
		<path id="XMLID_6627_" class="st24" d="M31,62C13.9,62,0,48.1,0,31S13.9,0,31,0s31,13.9,31,31S48.1,62,31,62z M31,2
			C15,2,2,15,2,31s13,29,29,29s29-13,29-29S47,2,31,2z"/>
	</g>
	<g id="XMLID_5339_">
		<path id="XMLID_5346_" class="st24" d="M48.2,21.6l-11-5.5c-0.1,0-0.1,0-0.2,0c0,0,0,0,0,0c-0.1,0-0.3,0.1-0.3,0.2l-6.8,11.1
			l7.6,12.3l10.9-17.7C48.4,21.8,48.3,21.6,48.2,21.6z"/>
		<polygon id="XMLID_5343_" class="st24" points="26.2,23.4 26.2,35.3 36.8,40.6 		"/>
		<path id="XMLID_5342_" class="st24" d="M37.7,41l9.7,4.9c0.5,0.3,1,0,1-0.6V23.6L37.7,41z"/>
		<path id="XMLID_5340_" class="st24" d="M25,21.6l-10.2-5.1l-0.6-0.3c-0.1,0-0.2-0.1-0.3-0.1c-0.1,0-0.2,0-0.3,0.1
			c-0.1,0.1-0.1,0.2-0.1,0.3v23.3c0,0.4,0.3,0.9,0.6,1l10,5c0.1,0.1,0.3,0.1,0.4,0.1c0.3,0,0.6-0.3,0.6-0.7V21.8
			C25.2,21.8,25.1,21.7,25,21.6z"/>
	</g>
</g>
</svg>
