<?xml version="1.0" encoding="utf-8"?>
<!-- Generator: Adobe Illustrator 21.0.2, SVG Export Plug-In . SVG Version: 6.00 Build 0)  -->
<svg version="1.1" id="Layer_1" xmlns="http://www.w3.org/2000/svg" xmlns:xlink="http://www.w3.org/1999/xlink" x="0px" y="0px"
	 viewBox="0 0 35.5 25" style="enable-background:new 0 0 35.5 25;" xml:space="preserve">
<style type="text/css">
	.st0{fill:#3D5A98;}
	.st1{fill:#005CFF;}
	.st2{fill-rule:evenodd;clip-rule:evenodd;fill:#FF6600;}
	.st3{fill:#007EE5;}
	.st4{fill:#DC4E41;}
	.st5{fill:#2EDE73;}
	.st6{fill:#405DE6;}
	.st7{fill:#EA4C89;}
	.st8{fill:#0084FF;}
	.st9{fill:#1D66D8;}
	.st10{fill:#FB0A84;}
	.st11{fill:#0077B5;}
	.st12{fill:#FF4500;}
	.st13{fill:#1DA1F2;}
	.st14{fill:#303D4D;}
	.st15{fill:#BD081C;}
	.st16{fill:#F9EC31;}
	.st17{fill:#00AFF0;}
	.st18{fill:#32B8E8;}
	.st19{fill:#CD201F;}
	.st20{fill:#F29100;}
	.st21{fill:#00749A;}
	.st22{fill:#00AB6C;}
	.st23{fill:#FFFFFF;}
	.st24{fill-rule:evenodd;clip-rule:evenodd;fill:#FFFFFF;}
	.st25{fill:none;}
</style>
<g id="Lozenge_3_">
	<g id="XMLID_38_">
		<path id="XMLID_39_" class="st19" d="M35.2,5.4c0,0-0.3-2.4-1.4-3.5c-1.4-1.4-2.9-1.4-3.6-1.5C25.2,0,17.8,0,17.8,0h0
			c0,0-7.5,0-12.4,0.4C4.6,0.4,3.1,0.4,1.8,1.9C0.7,2.9,0.4,5.4,0.4,5.4S0,8.3,0,11.1v2.7c0,2.9,0.4,5.8,0.4,5.8s0.3,2.4,1.4,3.5
			c1.4,1.4,3.1,1.4,3.9,1.5C8.5,24.9,17.8,25,17.8,25s7.5,0,12.4-0.4c0.7-0.1,2.2-0.1,3.6-1.5c1.1-1.1,1.4-3.5,1.4-3.5
			s0.4-2.9,0.4-5.8v-2.7C35.5,8.3,35.2,5.4,35.2,5.4z M14.1,17.1l0-10l9.6,5L14.1,17.1z"/>
	</g>
</g>
</svg>
