<?xml version="1.0" encoding="utf-8"?>
<!-- Generator: Adobe Illustrator 21.0.2, SVG Export Plug-In . SVG Version: 6.00 Build 0)  -->
<svg version="1.1" id="Layer_1" xmlns="http://www.w3.org/2000/svg" xmlns:xlink="http://www.w3.org/1999/xlink" x="0px" y="0px"
	 viewBox="0 0 60 60" style="enable-background:new 0 0 60 60;" xml:space="preserve">
<style type="text/css">
	.st0{fill:#3D5A98;}
	.st1{fill:#FFFFFF;}
	.st2{fill:#005CFF;}
	.st3{fill:#FF6600;}
	.st4{fill-rule:evenodd;clip-rule:evenodd;fill:#FFFFFF;}
	.st5{fill:#007EE5;}
	.st6{fill:#DC4E41;}
	.st7{fill:#2EDE73;}
	.st8{fill:#405DE6;}
	.st9{fill:#EA4C89;}
	.st10{fill:#0084FF;}
	.st11{fill:#1D66D8;}
	.st12{fill:#0077B5;}
	.st13{fill:#FF4500;}
	.st14{fill:none;}
	.st15{fill:#1DA1F2;}
	.st16{fill:#303D4D;}
	.st17{fill:#BD081C;}
	.st18{fill:#F9EC31;}
	.st19{fill:#00AFF0;}
	.st20{fill:#32B8E8;}
	.st21{fill:#CD201F;}
	.st22{fill:#F29100;}
	.st23{fill:#00749A;}
	.st24{fill:#00AB6C;}
	.st25{fill-rule:evenodd;clip-rule:evenodd;fill:#FF6600;}
	.st26{fill:#FB0A84;}
</style>
<g id="XMLID_3957_">
	<rect id="XMLID_4328_" x="0" y="0" class="st2" width="60" height="60"/>
	<g id="XMLID_4846_">
		<path id="XMLID_4852_" class="st1" d="M26.2,28.7c0,0,3.7-0.3,3.7-4.7c0-4.4-3.1-6.5-6.9-6.5h-7.1h-0.2h-5.4V42h5.4h0.2H23
			c0,0,7.8,0.2,7.8-7.2C30.8,34.8,31.1,28.7,26.2,28.7z M15.9,21.9h6.2H23c0,0,1.7,0,1.7,2.5s-1,2.9-2.2,2.9h-6.7V21.9z M22.7,37.6
			h-6.8v-6.5H23c0,0,2.6,0,2.6,3.4C25.6,37.3,23.7,37.6,22.7,37.6z"/>
		<g id="XMLID_4847_">
			<path id="XMLID_4849_" class="st1" d="M41.1,23.7c-9.4,0-9.4,9.4-9.4,9.4s-0.6,9.4,9.4,9.4c0,0,8.4,0.5,8.4-6.5h-4.3
				c0,0,0.1,2.6-3.9,2.6c0,0-4.3,0.3-4.3-4.3h12.7C49.7,34.4,51.1,23.7,41.1,23.7z M45,31.1h-8c0,0,0.5-3.8,4.3-3.8
				C45,27.3,45,31.1,45,31.1z"/>
			<rect id="XMLID_4848_" x="35.9" y="18.9" class="st1" width="10.1" height="3"/>
		</g>
	</g>
</g>
</svg>
