<?xml version="1.0" encoding="utf-8"?>
<!-- Generator: Adobe Illustrator 21.0.2, SVG Export Plug-In . SVG Version: 6.00 Build 0)  -->
<svg version="1.1" id="Layer_1" xmlns="http://www.w3.org/2000/svg" xmlns:xlink="http://www.w3.org/1999/xlink" x="0px" y="0px"
	 viewBox="0 0 63 63" style="enable-background:new 0 0 63 63;" xml:space="preserve">
<style type="text/css">
	.st0{fill:#3D5A98;}
	.st1{fill:#FFFFFF;}
	.st2{fill:#005CFF;}
	.st3{fill:#FF6600;}
	.st4{fill-rule:evenodd;clip-rule:evenodd;fill:#FFFFFF;}
	.st5{fill:#007EE5;}
	.st6{fill:#DC4E41;}
	.st7{fill:#2EDE73;}
	.st8{fill:#405DE6;}
	.st9{fill:#EA4C89;}
	.st10{fill:#0084FF;}
	.st11{fill:#1D66D8;}
	.st12{fill:#0077B5;}
	.st13{fill:#FF4500;}
	.st14{fill:none;}
	.st15{fill:#1DA1F2;}
	.st16{fill:#303D4D;}
	.st17{fill:#BD081C;}
	.st18{fill:#F9EC31;}
	.st19{fill:#00AFF0;}
	.st20{fill:#32B8E8;}
	.st21{fill:#CD201F;}
	.st22{fill:#F29100;}
	.st23{fill:#00749A;}
	.st24{fill:#00AB6C;}
	.st25{fill-rule:evenodd;clip-rule:evenodd;fill:#FF6600;}
	.st26{fill:#FB0A84;}
</style>
<g id="XMLID_95_">
	<g id="XMLID_5185_">
		<path id="XMLID_6609_" class="st2" d="M63,63H0V0h63V63z M3,60h57V3H3V60z"/>
	</g>
	<g id="XMLID_5136_">
		<path id="XMLID_5154_" class="st2" d="M27.7,30.2c0,0,3.7-0.3,3.7-4.7c0-4.4-3.1-6.5-6.9-6.5h-7.1h-0.2h-5.4v24.5h5.4h0.2h7.1
			c0,0,7.8,0.2,7.8-7.2C32.3,36.3,32.6,30.2,27.7,30.2z M17.4,23.4h6.2h0.9c0,0,1.7,0,1.7,2.5s-1,2.9-2.2,2.9h-6.7V23.4z M24.2,39.1
			h-6.8v-6.5h7.1c0,0,2.6,0,2.6,3.4C27.1,38.8,25.2,39.1,24.2,39.1z"/>
		<g id="XMLID_5137_">
			<path id="XMLID_5139_" class="st2" d="M42.6,25.2c-9.4,0-9.4,9.4-9.4,9.4S32.6,44,42.7,44c0,0,8.4,0.5,8.4-6.5h-4.3
				c0,0,0.1,2.6-3.9,2.6c0,0-4.3,0.3-4.3-4.3h12.7C51.2,35.9,52.6,25.2,42.6,25.2z M46.5,32.6h-8c0,0,0.5-3.8,4.3-3.8
				C46.5,28.8,46.5,32.6,46.5,32.6z"/>
			<rect id="XMLID_5138_" x="37.4" y="20.4" class="st2" width="10.1" height="3"/>
		</g>
	</g>
</g>
</svg>
