<?xml version="1.0" encoding="utf-8"?>
<!-- Generator: Adobe Illustrator 21.0.2, SVG Export Plug-In . SVG Version: 6.00 Build 0)  -->
<svg version="1.1" id="Layer_1" xmlns="http://www.w3.org/2000/svg" xmlns:xlink="http://www.w3.org/1999/xlink" x="0px" y="0px"
	 viewBox="0 0 30 30" style="enable-background:new 0 0 30 30;" xml:space="preserve">
<style type="text/css">
	.st0{fill:#3D5A98;}
	.st1{fill:#005CFF;}
	.st2{fill-rule:evenodd;clip-rule:evenodd;fill:#FF6600;}
	.st3{fill:#007EE5;}
	.st4{fill:#DC4E41;}
	.st5{fill:#2EDE73;}
	.st6{fill:#405DE6;}
	.st7{fill:#EA4C89;}
	.st8{fill:#0084FF;}
	.st9{fill:#1D66D8;}
	.st10{fill:#FB0A84;}
	.st11{fill:#0077B5;}
	.st12{fill:#FF4500;}
	.st13{fill:#1DA1F2;}
	.st14{fill:#303D4D;}
	.st15{fill:#BD081C;}
	.st16{fill:#F9EC31;}
	.st17{fill:#00AFF0;}
	.st18{fill:#32B8E8;}
	.st19{fill:#CD201F;}
	.st20{fill:#F29100;}
	.st21{fill:#00749A;}
	.st22{fill:#00AB6C;}
	.st23{fill:#FFFFFF;}
	.st24{fill-rule:evenodd;clip-rule:evenodd;fill:#FFFFFF;}
	.st25{fill:none;}
</style>
<path id="XMLID_5282_" class="st2" d="M9.5,0l6.3,0c4,0,8.7,4.5,8.7,8.8v0.8c0,0.9,0.8,1.8,2.1,1.8h1.3c1.6,0,2,0.9,2,2.2v7.2
	c0,5-4.3,9.2-9.2,9.2l-12,0C4.3,30,0,25.9,0,20.9V9.5C0,4.2,4.2,0,9.5,0L9.5,0z M9.5,7.9H15c1,0,1.7,0.8,1.7,1.7
	c0,1-0.8,1.7-1.7,1.7H9.5c-1,0-1.7-0.8-1.7-1.7C7.8,8.7,8.6,7.9,9.5,7.9L9.5,7.9z M9.5,18.7h10.8c1,0,1.7,0.8,1.7,1.7
	c0,1-0.8,1.7-1.7,1.7H9.5c-1,0-1.7-0.8-1.7-1.7C7.8,19.5,8.6,18.7,9.5,18.7L9.5,18.7z"/>
</svg>
