<?xml version="1.0" encoding="utf-8"?>
<!-- Generator: Adobe Illustrator 21.0.2, SVG Export Plug-In . SVG Version: 6.00 Build 0)  -->
<svg version="1.1" id="Layer_1" xmlns="http://www.w3.org/2000/svg" xmlns:xlink="http://www.w3.org/1999/xlink" x="0px" y="0px"
	 viewBox="0 0 62 62" style="enable-background:new 0 0 62 62;" xml:space="preserve">
<style type="text/css">
	.st0{fill:#3D5A98;}
	.st1{fill:#FFFFFF;}
	.st2{fill:#005CFF;}
	.st3{fill:#FF6600;}
	.st4{fill-rule:evenodd;clip-rule:evenodd;fill:#FFFFFF;}
	.st5{fill:#007EE5;}
	.st6{fill:#DC4E41;}
	.st7{fill:#2EDE73;}
	.st8{fill:#405DE6;}
	.st9{fill:#EA4C89;}
	.st10{fill:#0084FF;}
	.st11{fill:#1D66D8;}
	.st12{fill:#0077B5;}
	.st13{fill:#FF4500;}
	.st14{fill:none;}
	.st15{fill:#1DA1F2;}
	.st16{fill:#303D4D;}
	.st17{fill:#BD081C;}
	.st18{fill:#F9EC31;}
	.st19{fill:#00AFF0;}
	.st20{fill:#32B8E8;}
	.st21{fill:#CD201F;}
	.st22{fill:#F29100;}
	.st23{fill:#00749A;}
	.st24{fill:#00AB6C;}
	.st25{fill-rule:evenodd;clip-rule:evenodd;fill:#FF6600;}
	.st26{fill:#FB0A84;}
</style>
<g id="XMLID_818_">
	<g id="XMLID_5696_">
		<path id="XMLID_6697_" class="st5" d="M31,62C13.9,62,0,48.1,0,31S13.9,0,31,0s31,13.9,31,31S48.1,62,31,62z M31,2C15,2,2,15,2,31
			s13,29,29,29s29-13,29-29S47,2,31,2z"/>
	</g>
	<g id="XMLID_5689_">
		<g id="XMLID_5690_">
			<polygon id="XMLID_5695_" class="st5" points="24.4,16 14.9,22.1 21.4,27.4 31,21.5 			"/>
			<polygon id="XMLID_5694_" class="st5" points="14.9,32.6 24.4,38.9 31,33.4 21.4,27.4 			"/>
			<polygon id="XMLID_5693_" class="st5" points="31,33.4 37.7,38.9 47.1,32.7 40.6,27.4 			"/>
			<polygon id="XMLID_5692_" class="st5" points="47.1,22.2 37.7,16 31,21.5 40.6,27.4 			"/>
			<polygon id="XMLID_5691_" class="st5" points="31,34.5 24.4,40.1 21.5,38.2 21.5,40.3 31,46 40.5,40.3 40.5,38.2 37.7,40.1 			
				"/>
		</g>
	</g>
</g>
</svg>
