<?xml version="1.0" encoding="utf-8"?>
<!-- Generator: Adobe Illustrator 21.0.2, SVG Export Plug-In . SVG Version: 6.00 Build 0)  -->
<svg version="1.1" id="Layer_1" xmlns="http://www.w3.org/2000/svg" xmlns:xlink="http://www.w3.org/1999/xlink" x="0px" y="0px"
	 viewBox="0 0 60 60" style="enable-background:new 0 0 60 60;" xml:space="preserve">
<style type="text/css">
	.st0{fill:#3D5A98;}
	.st1{fill:#FFFFFF;}
	.st2{fill:#005CFF;}
	.st3{fill:#FF6600;}
	.st4{fill-rule:evenodd;clip-rule:evenodd;fill:#FFFFFF;}
	.st5{fill:#007EE5;}
	.st6{fill:#DC4E41;}
	.st7{fill:#2EDE73;}
	.st8{fill:#405DE6;}
	.st9{fill:#EA4C89;}
	.st10{fill:#0084FF;}
	.st11{fill:#1D66D8;}
	.st12{fill:#0077B5;}
	.st13{fill:#FF4500;}
	.st14{fill:none;}
	.st15{fill:#1DA1F2;}
	.st16{fill:#303D4D;}
	.st17{fill:#BD081C;}
	.st18{fill:#F9EC31;}
	.st19{fill:#00AFF0;}
	.st20{fill:#32B8E8;}
	.st21{fill:#CD201F;}
	.st22{fill:#F29100;}
	.st23{fill:#00749A;}
	.st24{fill:#00AB6C;}
	.st25{fill-rule:evenodd;clip-rule:evenodd;fill:#FF6600;}
	.st26{fill:#FB0A84;}
</style>
<g id="XMLID_5966_">
	<path id="XMLID_740_" d="M30,60L30,60C13.4,60,0,46.6,0,30v0C0,13.4,13.4,0,30,0h0c16.6,0,30,13.4,30,30v0C60,46.6,46.6,60,30,60z"
		/>
	<g id="XMLID_734_">
		<path id="XMLID_739_" class="st1" d="M34.4,20.1c-0.3,0-0.6,0-0.8,0.1c0.5,0.2,0.8,0.7,0.8,1.3c0,0.8-0.6,1.4-1.4,1.4
			c-0.6,0-1.1-0.4-1.3-0.8c-0.1,0.3-0.1,0.6-0.1,0.8c0,1.6,1.3,2.9,2.8,2.9c1.6,0,2.9-1.3,2.9-2.8C37.2,21.4,36,20.1,34.4,20.1z"/>
		<path id="XMLID_738_" class="st1" d="M27.2,22.9c-0.8,0-1.4-0.6-1.4-1.4c0-0.6,0.3-1.1,0.8-1.3c-0.3-0.1-0.5-0.1-0.8-0.1
			c-1.6,0-2.9,1.3-2.9,2.8c0,1.6,1.3,2.9,2.8,2.9c1.6,0,2.9-1.3,2.9-2.8c0-0.3,0-0.6-0.1-0.8C28.3,22.6,27.8,22.9,27.2,22.9z"/>
		<path id="XMLID_735_" class="st1" d="M35,16.3C33.5,15.5,31.9,15,30,15c-1.8,0-3.7,0.5-5.2,1.3c-1.5-0.8-3.1-1.3-5.1-1.3v10
			c0,11,9,20,20,20V25V15C38.8,15,36.4,15.5,35,16.3z M34.4,27.2c-0.8,0-1.6-0.3-2.3-0.7l-2,2l-2-2c-0.7,0.4-1.4,0.7-2.3,0.7
			c-2.4,0-4.3-1.9-4.3-4.3c0-2.4,1.9-4.3,4.3-4.3c2.2,0,4.1,1.7,4.3,3.9l0,0l0,0c0.2-2.2,2-3.9,4.3-3.9c2.4,0,4.3,1.9,4.3,4.3
			C38.7,25.3,36.7,27.2,34.4,27.2z"/>
	</g>
</g>
</svg>
