<?xml version="1.0" encoding="utf-8"?>
<!-- Generator: Adobe Illustrator 21.0.2, SVG Export Plug-In . SVG Version: 6.00 Build 0)  -->
<svg version="1.1" id="Layer_1" xmlns="http://www.w3.org/2000/svg" xmlns:xlink="http://www.w3.org/1999/xlink" x="0px" y="0px"
	 viewBox="0 0 20 30" style="enable-background:new 0 0 20 30;" xml:space="preserve">
<style type="text/css">
	.st0{fill:#3D5A98;}
	.st1{fill:#005CFF;}
	.st2{fill-rule:evenodd;clip-rule:evenodd;fill:#FF6600;}
	.st3{fill:#007EE5;}
	.st4{fill:#DC4E41;}
	.st5{fill:#2EDE73;}
	.st6{fill:#405DE6;}
	.st7{fill:#EA4C89;}
	.st8{fill:#0084FF;}
	.st9{fill:#1D66D8;}
	.st10{fill:#FB0A84;}
	.st11{fill:#0077B5;}
	.st12{fill:#FF4500;}
	.st13{fill:#1DA1F2;}
	.st14{fill:#303D4D;}
	.st15{fill:#BD081C;}
	.st16{fill:#F9EC31;}
	.st17{fill:#00AFF0;}
	.st18{fill:#32B8E8;}
	.st19{fill:#CD201F;}
	.st20{fill:#F29100;}
	.st21{fill:#00749A;}
	.st22{fill:#00AB6C;}
	.st23{fill:#FFFFFF;}
	.st24{fill-rule:evenodd;clip-rule:evenodd;fill:#FFFFFF;}
	.st25{fill:none;}
</style>
<g id="XMLID_5253_">
	<path id="XMLID_5258_" d="M14.6,5.1c-0.3,0-0.6,0-0.8,0.1c0.5,0.2,0.8,0.7,0.8,1.3c0,0.8-0.6,1.4-1.4,1.4c-0.6,0-1.1-0.4-1.3-0.8
		c-0.1,0.3-0.1,0.6-0.1,0.8c0,1.6,1.3,2.9,2.8,2.9c1.6,0,2.9-1.3,2.9-2.8C17.4,6.4,16.1,5.1,14.6,5.1z"/>
	<path id="XMLID_5257_" d="M7.4,7.9C6.6,7.9,6,7.3,6,6.5c0-0.6,0.3-1.1,0.8-1.3C6.6,5.1,6.3,5,6,5C4.4,5,3.1,6.3,3.1,7.9
		c0,1.6,1.3,2.9,2.8,2.9c1.6,0,2.9-1.3,2.9-2.8c0-0.3,0-0.6-0.1-0.8C8.5,7.6,8,7.9,7.4,7.9z"/>
	<path id="XMLID_5254_" d="M15.1,1.3C13.7,0.5,12,0,10.2,0C8.4,0,6.6,0.5,5.1,1.3C3.6,0.5,2,0,0,0v10c0,11,9,20,20,20V10V0
		C19,0,16.6,0.5,15.1,1.3z M14.5,12.2c-0.8,0-1.6-0.3-2.3-0.7l-2,2l-2-2c-0.7,0.4-1.4,0.7-2.3,0.7c-2.4,0-4.3-1.9-4.3-4.3
		c0-2.4,1.9-4.3,4.3-4.3c2.2,0,4.1,1.7,4.3,3.9l0,0l0,0c0.2-2.2,2-3.9,4.3-3.9c2.4,0,4.3,1.9,4.3,4.3C18.8,10.3,16.9,12.2,14.5,12.2
		z"/>
</g>
</svg>
