<?xml version="1.0" encoding="utf-8"?>
<!-- Generator: Adobe Illustrator 21.0.2, SVG Export Plug-In . SVG Version: 6.00 Build 0)  -->
<svg version="1.1" id="Layer_1" xmlns="http://www.w3.org/2000/svg" xmlns:xlink="http://www.w3.org/1999/xlink" x="0px" y="0px"
	 viewBox="0 0 63 63" style="enable-background:new 0 0 63 63;" xml:space="preserve">
<style type="text/css">
	.st0{fill:#3D5A98;}
	.st1{fill:#FFFFFF;}
	.st2{fill:#005CFF;}
	.st3{fill:#FF6600;}
	.st4{fill-rule:evenodd;clip-rule:evenodd;fill:#FFFFFF;}
	.st5{fill:#007EE5;}
	.st6{fill:#DC4E41;}
	.st7{fill:#2EDE73;}
	.st8{fill:#405DE6;}
	.st9{fill:#EA4C89;}
	.st10{fill:#0084FF;}
	.st11{fill:#1D66D8;}
	.st12{fill:#0077B5;}
	.st13{fill:#FF4500;}
	.st14{fill:none;}
	.st15{fill:#1DA1F2;}
	.st16{fill:#303D4D;}
	.st17{fill:#BD081C;}
	.st18{fill:#F9EC31;}
	.st19{fill:#00AFF0;}
	.st20{fill:#32B8E8;}
	.st21{fill:#CD201F;}
	.st22{fill:#F29100;}
	.st23{fill:#00749A;}
	.st24{fill:#00AB6C;}
	.st25{fill-rule:evenodd;clip-rule:evenodd;fill:#FF6600;}
	.st26{fill:#FB0A84;}
</style>
<g id="XMLID_807_">
	<g id="XMLID_5015_">
		<path id="XMLID_6594_" class="st8" d="M63,63H0V0h63V63z M3,60h57V3H3V60z"/>
	</g>
	<g id="XMLID_5005_">
		<path id="XMLID_5011_" class="st8" d="M31.5,19.2c4,0,4.5,0,6,0.1c1.5,0.1,2.3,0.3,2.8,0.5c0.7,0.3,1.2,0.6,1.7,1.1
			c0.5,0.5,0.8,1,1.1,1.7c0.2,0.5,0.4,1.3,0.5,2.8c0.1,1.6,0.1,2.1,0.1,6.1s0,4.5-0.1,6.1c-0.1,1.5-0.3,2.3-0.5,2.8
			c-0.3,0.7-0.6,1.2-1.1,1.7c-0.5,0.5-1,0.8-1.7,1.1c-0.5,0.2-1.3,0.4-2.8,0.5c-1.6,0.1-2.1,0.1-6,0.1s-4.5,0-6-0.1
			c-1.5-0.1-2.3-0.3-2.8-0.5c-0.7-0.3-1.2-0.6-1.7-1.1c-0.5-0.5-0.8-1-1.1-1.7c-0.2-0.5-0.4-1.3-0.5-2.8c-0.1-1.6-0.1-2.1-0.1-6.1
			s0-4.5,0.1-6.1c0.1-1.5,0.3-2.3,0.5-2.8c0.3-0.7,0.6-1.2,1.1-1.7c0.5-0.5,1-0.8,1.7-1.1c0.5-0.2,1.3-0.4,2.8-0.5
			C27,19.2,27.5,19.2,31.5,19.2 M31.5,16.5c-4.1,0-4.6,0-6.2,0.1c-1.6,0.1-2.7,0.3-3.6,0.7c-1,0.4-1.8,0.9-2.7,1.7
			c-0.8,0.8-1.3,1.7-1.7,2.7c-0.4,1-0.6,2-0.7,3.6c-0.1,1.6-0.1,2.1-0.1,6.2c0,4.1,0,4.6,0.1,6.2c0.1,1.6,0.3,2.7,0.7,3.6
			c0.4,1,0.9,1.8,1.7,2.7c0.8,0.8,1.7,1.3,2.7,1.7c1,0.4,2,0.6,3.6,0.7c1.6,0.1,2.1,0.1,6.2,0.1s4.6,0,6.2-0.1
			c1.6-0.1,2.7-0.3,3.6-0.7c1-0.4,1.8-0.9,2.7-1.7c0.8-0.8,1.3-1.7,1.7-2.7c0.4-1,0.6-2,0.7-3.6c0.1-1.6,0.1-2.1,0.1-6.2
			s0-4.6-0.1-6.2c-0.1-1.6-0.3-2.7-0.7-3.6c-0.4-1-0.9-1.8-1.7-2.7c-0.8-0.8-1.7-1.3-2.7-1.7c-1-0.4-2-0.6-3.6-0.7
			C36.1,16.5,35.6,16.5,31.5,16.5L31.5,16.5z"/>
		<path id="XMLID_5007_" class="st8" d="M31.5,23.8c-4.2,0-7.7,3.4-7.7,7.7s3.4,7.7,7.7,7.7s7.7-3.4,7.7-7.7S35.7,23.8,31.5,23.8z
			 M31.5,36.5c-2.8,0-5-2.2-5-5s2.2-5,5-5s5,2.2,5,5S34.3,36.5,31.5,36.5z"/>
		<ellipse id="XMLID_5006_" class="st8" cx="39.5" cy="23.5" rx="1.8" ry="1.8"/>
	</g>
</g>
</svg>
