<?xml version="1.0" encoding="utf-8"?>
<!-- Generator: Adobe Illustrator 21.0.2, SVG Export Plug-In . SVG Version: 6.00 Build 0)  -->
<svg version="1.1" id="Layer_1" xmlns="http://www.w3.org/2000/svg" xmlns:xlink="http://www.w3.org/1999/xlink" x="0px" y="0px"
	 viewBox="0 0 63 63" style="enable-background:new 0 0 63 63;" xml:space="preserve">
<style type="text/css">
	.st0{fill:#3D5A98;}
	.st1{fill:#FFFFFF;}
	.st2{fill:#005CFF;}
	.st3{fill:#FF6600;}
	.st4{fill-rule:evenodd;clip-rule:evenodd;fill:#FFFFFF;}
	.st5{fill:#007EE5;}
	.st6{fill:#DC4E41;}
	.st7{fill:#2EDE73;}
	.st8{fill:#405DE6;}
	.st9{fill:#EA4C89;}
	.st10{fill:#0084FF;}
	.st11{fill:#1D66D8;}
	.st12{fill:#0077B5;}
	.st13{fill:#FF4500;}
	.st14{fill:none;}
	.st15{fill:#1DA1F2;}
	.st16{fill:#303D4D;}
	.st17{fill:#BD081C;}
	.st18{fill:#F9EC31;}
	.st19{fill:#00AFF0;}
	.st20{fill:#32B8E8;}
	.st21{fill:#CD201F;}
	.st22{fill:#F29100;}
	.st23{fill:#00749A;}
	.st24{fill:#00AB6C;}
	.st25{fill-rule:evenodd;clip-rule:evenodd;fill:#FF6600;}
	.st26{fill:#FB0A84;}
</style>
<g id="XMLID_271_">
	<g id="XMLID_4841_">
		<path id="XMLID_111_" class="st24" d="M63,63H0V0h63V63z M3,60h57V3H3V60z"/>
	</g>
	<g id="XMLID_4565_">
		<path id="XMLID_4842_" class="st24" d="M48.7,22.1l-11-5.5c-0.1,0-0.1,0-0.2,0c0,0,0,0,0,0c-0.1,0-0.3,0.1-0.3,0.2l-6.8,11.1
			l7.6,12.3l10.9-17.7C48.9,22.3,48.8,22.1,48.7,22.1z"/>
		<polygon id="XMLID_4844_" class="st24" points="26.7,23.9 26.7,35.8 37.3,41.1 		"/>
		<path id="XMLID_4856_" class="st24" d="M38.2,41.5l9.7,4.9c0.5,0.3,1,0,1-0.6V24.2L38.2,41.5z"/>
		<path id="XMLID_4860_" class="st24" d="M25.5,22.1L15.4,17l-0.6-0.3c-0.1,0-0.2-0.1-0.3-0.1c-0.1,0-0.2,0-0.3,0.1
			c-0.1,0.1-0.1,0.2-0.1,0.3v23.3c0,0.4,0.3,0.9,0.6,1l10,5c0.1,0.1,0.3,0.1,0.4,0.1c0.3,0,0.6-0.3,0.6-0.7V22.3
			C25.7,22.3,25.6,22.2,25.5,22.1z"/>
	</g>
</g>
</svg>
