<?xml version="1.0" encoding="utf-8"?>
<!-- Generator: Adobe Illustrator 21.0.2, SVG Export Plug-In . SVG Version: 6.00 Build 0)  -->
<svg version="1.1" id="Layer_1" xmlns="http://www.w3.org/2000/svg" xmlns:xlink="http://www.w3.org/1999/xlink" x="0px" y="0px"
	 viewBox="0 0 35.5 30" style="enable-background:new 0 0 35.5 30;" xml:space="preserve">
<style type="text/css">
	.st0{fill:#3D5A98;}
	.st1{fill:#005CFF;}
	.st2{fill-rule:evenodd;clip-rule:evenodd;fill:#FF6600;}
	.st3{fill:#007EE5;}
	.st4{fill:#DC4E41;}
	.st5{fill:#2EDE73;}
	.st6{fill:#405DE6;}
	.st7{fill:#EA4C89;}
	.st8{fill:#0084FF;}
	.st9{fill:#1D66D8;}
	.st10{fill:#FB0A84;}
	.st11{fill:#0077B5;}
	.st12{fill:#FF4500;}
	.st13{fill:#1DA1F2;}
	.st14{fill:#303D4D;}
	.st15{fill:#BD081C;}
	.st16{fill:#F9EC31;}
	.st17{fill:#00AFF0;}
	.st18{fill:#32B8E8;}
	.st19{fill:#CD201F;}
	.st20{fill:#F29100;}
	.st21{fill:#00749A;}
	.st22{fill:#00AB6C;}
	.st23{fill:#FFFFFF;}
	.st24{fill-rule:evenodd;clip-rule:evenodd;fill:#FFFFFF;}
	.st25{fill:none;}
</style>
<g id="XMLID_5204_">
	<path id="XMLID_5205_" class="st12" d="M35.5,14.6c0-2.3-1.8-4.1-4.1-4.1c-1,0-1.9,0.4-2.7,1c-2.7-1.7-6.2-2.8-10.1-2.9L21,2
		l5.8,1.4c0,1.8,1.5,3.3,3.3,3.3c1.8,0,3.3-1.5,3.3-3.3S32,0,30.1,0c-1.4,0-2.6,0.9-3.1,2.1l-6.9-1.6l-2.9,8.1
		c-4.1,0.1-7.8,1.2-10.5,2.9c-0.7-0.6-1.7-1-2.7-1c-2.3,0-4.1,1.8-4.1,4.1C0,16,0.7,17.3,1.9,18c-0.1,0.4-0.1,0.8-0.1,1.2
		c0,5.9,7.2,10.7,16,10.7c8.8,0,16-4.8,16-10.7c0-0.4,0-0.8-0.1-1.2C34.8,17.3,35.5,16,35.5,14.6z M30.1,1.3c1.1,0,2.1,0.9,2.1,2.1
		c0,1.1-0.9,2.1-2.1,2.1s-2.1-0.9-2.1-2.1C28.1,2.2,29,1.3,30.1,1.3z M12.7,14.9c1.4,0,2.5,1.1,2.5,2.5c0,1.4-1.1,2.5-2.5,2.5
		c-1.4,0-2.5-1.1-2.5-2.5C10.2,16,11.3,14.9,12.7,14.9z M12,23.3c0.3-0.2,0.7-0.2,0.9,0.1c0,0,1.4,1.5,4.8,1.5c3.5,0,5-1.5,5-1.5
		c0.2-0.3,0.7-0.3,0.9,0c0.3,0.2,0.3,0.6,0,0.9c-0.1,0.1-1.9,1.9-6,1.9c-4.1,0-5.7-1.9-5.8-1.9C11.7,23.9,11.7,23.5,12,23.3z
		 M23.2,19.9c-1.4,0-2.5-1.1-2.5-2.5c0-1.4,1.1-2.5,2.5-2.5c1.4,0,2.5,1.1,2.5,2.5C25.7,18.8,24.6,19.9,23.2,19.9z M1.3,14.6
		c0-1.5,1.3-2.8,2.8-2.8c0.6,0,1.1,0.2,1.6,0.5c-1.6,1.3-2.8,2.8-3.4,4.4C1.7,16.2,1.3,15.4,1.3,14.6z M33.2,16.7
		c-0.6-1.7-1.8-3.2-3.4-4.4c0.5-0.3,1-0.5,1.6-0.5c1.5,0,2.8,1.3,2.8,2.8C34.3,15.4,33.9,16.2,33.2,16.7z"/>
</g>
</svg>
