<?xml version="1.0" encoding="utf-8"?>
<!-- Generator: Adobe Illustrator 21.0.2, SVG Export Plug-In . SVG Version: 6.00 Build 0)  -->
<svg version="1.1" id="Layer_1" xmlns="http://www.w3.org/2000/svg" xmlns:xlink="http://www.w3.org/1999/xlink" x="0px" y="0px"
	 viewBox="0 0 62 62" style="enable-background:new 0 0 62 62;" xml:space="preserve">
<style type="text/css">
	.st0{fill:#3D5A98;}
	.st1{fill:#FFFFFF;}
	.st2{fill:#005CFF;}
	.st3{fill:#FF6600;}
	.st4{fill-rule:evenodd;clip-rule:evenodd;fill:#FFFFFF;}
	.st5{fill:#007EE5;}
	.st6{fill:#DC4E41;}
	.st7{fill:#2EDE73;}
	.st8{fill:#405DE6;}
	.st9{fill:#EA4C89;}
	.st10{fill:#0084FF;}
	.st11{fill:#1D66D8;}
	.st12{fill:#0077B5;}
	.st13{fill:#FF4500;}
	.st14{fill:none;}
	.st15{fill:#1DA1F2;}
	.st16{fill:#303D4D;}
	.st17{fill:#BD081C;}
	.st18{fill:#F9EC31;}
	.st19{fill:#00AFF0;}
	.st20{fill:#32B8E8;}
	.st21{fill:#CD201F;}
	.st22{fill:#F29100;}
	.st23{fill:#00749A;}
	.st24{fill:#00AB6C;}
	.st25{fill-rule:evenodd;clip-rule:evenodd;fill:#FF6600;}
	.st26{fill:#FB0A84;}
</style>
<g id="XMLID_426_">
	<g id="XMLID_5629_">
		<path id="XMLID_6672_" class="st13" d="M31,62C13.9,62,0,48.1,0,31S13.9,0,31,0s31,13.9,31,31S48.1,62,31,62z M31,2
			C15,2,2,15,2,31s13,29,29,29s29-13,29-29S47,2,31,2z"/>
	</g>
	<g id="XMLID_5619_">
		<path id="XMLID_5620_" class="st13" d="M48.8,30.6c0-2.3-1.8-4.1-4.1-4.1c-1,0-1.9,0.4-2.7,1c-2.7-1.7-6.2-2.8-10.1-2.9l2.3-6.6
			l5.8,1.4c0,1.8,1.5,3.3,3.3,3.3c1.8,0,3.3-1.5,3.3-3.3S45.2,16,43.4,16c-1.4,0-2.6,0.9-3.1,2.1l-6.9-1.6l-2.9,8.1
			c-4.1,0.1-7.8,1.2-10.5,2.9c-0.7-0.6-1.7-1-2.7-1c-2.3,0-4.1,1.8-4.1,4.1c0,1.4,0.7,2.7,1.9,3.4C15,34.4,15,34.9,15,35.3
			C15,41.2,22.2,46,31,46c8.8,0,16-4.8,16-10.7c0-0.4,0-0.8-0.1-1.2C48,33.3,48.8,32,48.8,30.6z M43.4,17.3c1.1,0,2.1,0.9,2.1,2.1
			c0,1.1-0.9,2.1-2.1,2.1s-2.1-0.9-2.1-2.1C41.3,18.2,42.2,17.3,43.4,17.3z M25.9,30.9c1.4,0,2.5,1.1,2.5,2.5c0,1.4-1.1,2.5-2.5,2.5
			c-1.4,0-2.5-1.1-2.5-2.5C23.4,32,24.5,30.9,25.9,30.9z M25.2,39.3c0.3-0.2,0.7-0.2,0.9,0.1c0,0,1.4,1.5,4.8,1.5c3.5,0,5-1.5,5-1.5
			c0.2-0.3,0.7-0.3,0.9,0c0.3,0.2,0.3,0.6,0,0.9c-0.1,0.1-1.9,1.9-6,1.9c-4.1,0-5.7-1.9-5.8-1.9C24.9,39.9,24.9,39.5,25.2,39.3z
			 M36.4,35.9c-1.4,0-2.5-1.1-2.5-2.5c0-1.4,1.1-2.5,2.5-2.5c1.4,0,2.5,1.1,2.5,2.5C38.9,34.8,37.8,35.9,36.4,35.9z M14.5,30.6
			c0-1.5,1.3-2.8,2.8-2.8c0.6,0,1.1,0.2,1.6,0.5c-1.6,1.3-2.8,2.8-3.4,4.4C14.9,32.2,14.5,31.4,14.5,30.6z M46.5,32.7
			c-0.6-1.7-1.8-3.2-3.4-4.4c0.5-0.3,1-0.5,1.6-0.5c1.5,0,2.8,1.3,2.8,2.8C47.5,31.4,47.1,32.2,46.5,32.7z"/>
	</g>
</g>
</svg>
