<?xml version="1.0" encoding="utf-8"?>
<!-- Generator: Adobe Illustrator 21.0.2, SVG Export Plug-In . SVG Version: 6.00 Build 0)  -->
<svg version="1.1" id="Layer_1" xmlns="http://www.w3.org/2000/svg" xmlns:xlink="http://www.w3.org/1999/xlink" x="0px" y="0px"
	 viewBox="0 0 62 62" style="enable-background:new 0 0 62 62;" xml:space="preserve">
<style type="text/css">
	.st0{fill:#3D5A98;}
	.st1{fill:#FFFFFF;}
	.st2{fill:#005CFF;}
	.st3{fill:#FF6600;}
	.st4{fill-rule:evenodd;clip-rule:evenodd;fill:#FFFFFF;}
	.st5{fill:#007EE5;}
	.st6{fill:#DC4E41;}
	.st7{fill:#2EDE73;}
	.st8{fill:#405DE6;}
	.st9{fill:#EA4C89;}
	.st10{fill:#0084FF;}
	.st11{fill:#1D66D8;}
	.st12{fill:#0077B5;}
	.st13{fill:#FF4500;}
	.st14{fill:none;}
	.st15{fill:#1DA1F2;}
	.st16{fill:#303D4D;}
	.st17{fill:#BD081C;}
	.st18{fill:#F9EC31;}
	.st19{fill:#00AFF0;}
	.st20{fill:#32B8E8;}
	.st21{fill:#CD201F;}
	.st22{fill:#F29100;}
	.st23{fill:#00749A;}
	.st24{fill:#00AB6C;}
	.st25{fill-rule:evenodd;clip-rule:evenodd;fill:#FF6600;}
	.st26{fill:#FB0A84;}
</style>
<g id="XMLID_819_">
	<g id="XMLID_5578_">
		<path id="XMLID_6651_" class="st22" d="M31,62C13.9,62,0,48.1,0,31S13.9,0,31,0s31,13.9,31,31S48.1,62,31,62z M31,2
			C15,2,2,15,2,31s13,29,29,29s29-13,29-29S47,2,31,2z"/>
	</g>
	<g id="XMLID_5572_">
		<g id="lines__x003C_Group_x003E__6_">
			<circle id="circle_7_" class="st22" cx="20" cy="42" r="4"/>
			<g id="XMLID_5576_">
				<path id="XMLID_5577_" class="st22" d="M16.1,31.9c3.7,0,7.2,1.5,9.9,4.1c2.6,2.7,4.1,6.2,4.1,9.9h5.7
					c0-10.9-8.8-19.8-19.7-19.8V31.9z"/>
			</g>
			<g id="XMLID_5574_">
				<path id="XMLID_5575_" class="st22" d="M16.1,21.7c13.3,0,24.1,10.9,24.1,24.3h5.7c0-16.5-13.4-30-29.9-30V21.7z"/>
			</g>
		</g>
	</g>
</g>
</svg>
