<?xml version="1.0" encoding="utf-8"?>
<!-- Generator: Adobe Illustrator 21.0.2, SVG Export Plug-In . SVG Version: 6.00 Build 0)  -->
<svg version="1.1" id="Layer_1" xmlns="http://www.w3.org/2000/svg" xmlns:xlink="http://www.w3.org/1999/xlink" x="0px" y="0px"
	 viewBox="0 0 30 30" style="enable-background:new 0 0 30 30;" xml:space="preserve">
<style type="text/css">
	.st0{fill:#3D5A98;}
	.st1{fill:#005CFF;}
	.st2{fill-rule:evenodd;clip-rule:evenodd;fill:#FF6600;}
	.st3{fill:#007EE5;}
	.st4{fill:#DC4E41;}
	.st5{fill:#2EDE73;}
	.st6{fill:#405DE6;}
	.st7{fill:#EA4C89;}
	.st8{fill:#0084FF;}
	.st9{fill:#1D66D8;}
	.st10{fill:#FB0A84;}
	.st11{fill:#0077B5;}
	.st12{fill:#FF4500;}
	.st13{fill:#1DA1F2;}
	.st14{fill:#303D4D;}
	.st15{fill:#BD081C;}
	.st16{fill:#F9EC31;}
	.st17{fill:#00AFF0;}
	.st18{fill:#32B8E8;}
	.st19{fill:#CD201F;}
	.st20{fill:#F29100;}
	.st21{fill:#00749A;}
	.st22{fill:#00AB6C;}
	.st23{fill:#FFFFFF;}
	.st24{fill-rule:evenodd;clip-rule:evenodd;fill:#FFFFFF;}
	.st25{fill:none;}
</style>
<g id="XMLID_4868_">
	<path id="XMLID_4908_" class="st21" d="M2.1,15c0,5.1,3,9.5,7.3,11.6L3.2,9.8C2.5,11.4,2.1,13.1,2.1,15z"/>
	<path id="XMLID_4905_" class="st21" d="M23.7,14.4c0-1.6-0.6-2.7-1.1-3.5c-0.7-1.1-1.3-2-1.3-3c0-1.2,0.9-2.3,2.2-2.3
		c0.1,0,0.1,0,0.2,0c-2.3-2.1-5.3-3.4-8.7-3.4c-4.5,0-8.5,2.3-10.8,5.8c0.3,0,0.6,0,0.8,0c1.3,0,3.4-0.2,3.4-0.2
		c0.7,0,0.8,1,0.1,1.1c0,0-0.7,0.1-1.5,0.1l4.7,13.9l2.8-8.4l-2-5.5c-0.7,0-1.3-0.1-1.3-0.1c-0.7,0-0.6-1.1,0.1-1.1
		c0,0,2.1,0.2,3.4,0.2c1.3,0,3.4-0.2,3.4-0.2c0.7,0,0.8,1,0.1,1.1c0,0-0.7,0.1-1.5,0.1l4.7,13.8l1.3-4.3
		C23.3,16.7,23.7,15.5,23.7,14.4z"/>
	<path id="XMLID_4902_" class="st21" d="M15.2,16.1l-3.9,11.2c1.2,0.3,2.4,0.5,3.6,0.5c1.5,0,2.9-0.3,4.3-0.7c0-0.1-0.1-0.1-0.1-0.2
		L15.2,16.1z"/>
	<path id="XMLID_4895_" class="st21" d="M26.3,8.8c0.1,0.4,0.1,0.8,0.1,1.3c0,1.3-0.2,2.8-1,4.6l-3.9,11.4c3.8-2.2,6.4-6.4,6.4-11.1
		C27.9,12.8,27.3,10.7,26.3,8.8z"/>
	<path id="XMLID_4869_" class="st21" d="M15,0C6.7,0,0,6.7,0,15c0,8.3,6.7,15,15,15c8.3,0,15-6.7,15-15C30,6.7,23.3,0,15,0z
		 M15,29.3C7.1,29.3,0.7,22.9,0.7,15C0.7,7.1,7.1,0.7,15,0.7c7.9,0,14.3,6.4,14.3,14.3C29.3,22.9,22.9,29.3,15,29.3z"/>
</g>
</svg>
