<?xml version="1.0" encoding="utf-8"?>
<!-- Generator: Adobe Illustrator 21.0.2, SVG Export Plug-In . SVG Version: 6.00 Build 0)  -->
<svg version="1.1" id="Layer_1" xmlns="http://www.w3.org/2000/svg" xmlns:xlink="http://www.w3.org/1999/xlink" x="0px" y="0px"
	 viewBox="0 0 63 63" style="enable-background:new 0 0 63 63;" xml:space="preserve">
<style type="text/css">
	.st0{fill:#3D5A98;}
	.st1{fill:#FFFFFF;}
	.st2{fill:#005CFF;}
	.st3{fill:#FF6600;}
	.st4{fill-rule:evenodd;clip-rule:evenodd;fill:#FFFFFF;}
	.st5{fill:#007EE5;}
	.st6{fill:#DC4E41;}
	.st7{fill:#2EDE73;}
	.st8{fill:#405DE6;}
	.st9{fill:#EA4C89;}
	.st10{fill:#0084FF;}
	.st11{fill:#1D66D8;}
	.st12{fill:#0077B5;}
	.st13{fill:#FF4500;}
	.st14{fill:none;}
	.st15{fill:#1DA1F2;}
	.st16{fill:#303D4D;}
	.st17{fill:#BD081C;}
	.st18{fill:#F9EC31;}
	.st19{fill:#00AFF0;}
	.st20{fill:#32B8E8;}
	.st21{fill:#CD201F;}
	.st22{fill:#F29100;}
	.st23{fill:#00749A;}
	.st24{fill:#00AB6C;}
	.st25{fill-rule:evenodd;clip-rule:evenodd;fill:#FF6600;}
	.st26{fill:#FB0A84;}
</style>
<g id="XMLID_808_">
	<g id="XMLID_4688_">
		<path id="XMLID_101_" class="st23" d="M63,63H0V0h63V63z M3,60h57V3H3V60z"/>
	</g>
	<g id="XMLID_4720_">
		<path id="XMLID_4760_" class="st23" d="M18.6,31.5c0,5.1,3,9.5,7.3,11.6l-6.1-16.8C19,27.9,18.6,29.6,18.6,31.5z"/>
		<path id="XMLID_4759_" class="st23" d="M40.2,30.9c0-1.6-0.6-2.7-1.1-3.5c-0.7-1.1-1.3-2-1.3-3c0-1.2,0.9-2.3,2.2-2.3
			c0.1,0,0.1,0,0.2,0c-2.3-2.1-5.3-3.4-8.7-3.4c-4.5,0-8.5,2.3-10.8,5.8c0.3,0,0.6,0,0.8,0c1.3,0,3.4-0.2,3.4-0.2
			c0.7,0,0.8,1,0.1,1.1c0,0-0.7,0.1-1.5,0.1l4.7,13.9l2.8-8.4l-2-5.5c-0.7,0-1.3-0.1-1.3-0.1c-0.7,0-0.6-1.1,0.1-1.1
			c0,0,2.1,0.2,3.4,0.2c1.3,0,3.4-0.2,3.4-0.2c0.7,0,0.8,1,0.1,1.1c0,0-0.7,0.1-1.5,0.1l4.7,13.8l1.3-4.3
			C39.8,33.2,40.2,32,40.2,30.9z"/>
		<path id="XMLID_4758_" class="st23" d="M31.7,32.6l-3.9,11.2c1.2,0.3,2.4,0.5,3.6,0.5c1.5,0,2.9-0.3,4.3-0.7
			c0-0.1-0.1-0.1-0.1-0.2L31.7,32.6z"/>
		<path id="XMLID_4751_" class="st23" d="M42.8,25.3c0.1,0.4,0.1,0.8,0.1,1.3c0,1.3-0.2,2.8-1,4.6L38,42.6c3.8-2.2,6.4-6.4,6.4-11.1
			C44.4,29.3,43.8,27.2,42.8,25.3z"/>
		<path id="XMLID_4721_" class="st23" d="M31.5,16.5c-8.3,0-15,6.7-15,15c0,8.3,6.7,15,15,15c8.3,0,15-6.7,15-15
			C46.5,23.2,39.8,16.5,31.5,16.5z M31.5,45.8c-7.9,0-14.3-6.4-14.3-14.3c0-7.9,6.4-14.3,14.3-14.3c7.9,0,14.3,6.4,14.3,14.3
			C45.8,39.4,39.4,45.8,31.5,45.8z"/>
	</g>
</g>
</svg>
