<?xml version="1.0" encoding="utf-8"?>
<!-- Generator: Adobe Illustrator 21.0.2, SVG Export Plug-In . SVG Version: 6.00 Build 0)  -->
<svg version="1.1" id="Layer_1" xmlns="http://www.w3.org/2000/svg" xmlns:xlink="http://www.w3.org/1999/xlink" x="0px" y="0px"
	 viewBox="0 0 60 60" style="enable-background:new 0 0 60 60;" xml:space="preserve">
<style type="text/css">
	.st0{fill:#3D5A98;}
	.st1{fill:#FFFFFF;}
	.st2{fill:#005CFF;}
	.st3{fill:#FF6600;}
	.st4{fill-rule:evenodd;clip-rule:evenodd;fill:#FFFFFF;}
	.st5{fill:#007EE5;}
	.st6{fill:#DC4E41;}
	.st7{fill:#2EDE73;}
	.st8{fill:#405DE6;}
	.st9{fill:#EA4C89;}
	.st10{fill:#0084FF;}
	.st11{fill:#1D66D8;}
	.st12{fill:#0077B5;}
	.st13{fill:#FF4500;}
	.st14{fill:none;}
	.st15{fill:#1DA1F2;}
	.st16{fill:#303D4D;}
	.st17{fill:#BD081C;}
	.st18{fill:#F9EC31;}
	.st19{fill:#00AFF0;}
	.st20{fill:#32B8E8;}
	.st21{fill:#CD201F;}
	.st22{fill:#F29100;}
	.st23{fill:#00749A;}
	.st24{fill:#00AB6C;}
	.st25{fill-rule:evenodd;clip-rule:evenodd;fill:#FF6600;}
	.st26{fill:#FB0A84;}
</style>
<g id="XMLID_6529_">
	<path id="XMLID_568_" class="st21" d="M30,60L30,60C13.4,60,0,46.6,0,30v0C0,13.4,13.4,0,30,0h0c16.6,0,30,13.4,30,30v0
		C60,46.6,46.6,60,30,60z"/>
	<g id="Lozenge_11_">
		<g id="XMLID_30_">
			<path id="XMLID_31_" class="st1" d="M47.4,22.9c0,0-0.3-2.4-1.4-3.5c-1.4-1.4-2.9-1.4-3.6-1.5c-5-0.4-12.4-0.4-12.4-0.4h0
				c0,0-7.5,0-12.4,0.4c-0.7,0.1-2.2,0.1-3.6,1.5c-1.1,1.1-1.4,3.5-1.4,3.5s-0.4,2.9-0.4,5.8v2.7c0,2.9,0.4,5.8,0.4,5.8
				s0.3,2.4,1.4,3.5c1.4,1.4,3.1,1.4,3.9,1.5c2.8,0.3,12.1,0.4,12.1,0.4s7.5,0,12.4-0.4c0.7-0.1,2.2-0.1,3.6-1.5
				c1.1-1.1,1.4-3.5,1.4-3.5s0.4-2.9,0.4-5.8v-2.7C47.8,25.8,47.4,22.9,47.4,22.9z M26.3,34.6l0-10l9.6,5L26.3,34.6z"/>
		</g>
	</g>
</g>
</svg>
