<?xml version="1.0" encoding="utf-8"?>
<!-- Generator: Adobe Illustrator 21.0.2, SVG Export Plug-In . SVG Version: 6.00 Build 0)  -->
<svg version="1.1" id="Layer_1" xmlns="http://www.w3.org/2000/svg" xmlns:xlink="http://www.w3.org/1999/xlink" x="0px" y="0px"
	 viewBox="0 0 62 62" style="enable-background:new 0 0 62 62;" xml:space="preserve">
<style type="text/css">
	.st0{fill:#3D5A98;}
	.st1{fill:#FFFFFF;}
	.st2{fill:#005CFF;}
	.st3{fill:#FF6600;}
	.st4{fill-rule:evenodd;clip-rule:evenodd;fill:#FFFFFF;}
	.st5{fill:#007EE5;}
	.st6{fill:#DC4E41;}
	.st7{fill:#2EDE73;}
	.st8{fill:#405DE6;}
	.st9{fill:#EA4C89;}
	.st10{fill:#0084FF;}
	.st11{fill:#1D66D8;}
	.st12{fill:#0077B5;}
	.st13{fill:#FF4500;}
	.st14{fill:none;}
	.st15{fill:#1DA1F2;}
	.st16{fill:#303D4D;}
	.st17{fill:#BD081C;}
	.st18{fill:#F9EC31;}
	.st19{fill:#00AFF0;}
	.st20{fill:#32B8E8;}
	.st21{fill:#CD201F;}
	.st22{fill:#F29100;}
	.st23{fill:#00749A;}
	.st24{fill:#00AB6C;}
	.st25{fill-rule:evenodd;clip-rule:evenodd;fill:#FF6600;}
	.st26{fill:#FB0A84;}
</style>
<g id="XMLID_98_">
	<g id="XMLID_5718_">
		<path id="XMLID_6705_" class="st2" d="M31,62C13.9,62,0,48.1,0,31S13.9,0,31,0s31,13.9,31,31S48.1,62,31,62z M31,2C15,2,2,15,2,31
			s13,29,29,29s29-13,29-29S47,2,31,2z"/>
	</g>
	<g id="XMLID_5708_">
		<path id="XMLID_5714_" class="st2" d="M27.2,29.7c0,0,3.7-0.3,3.7-4.7c0-4.4-3.1-6.5-6.9-6.5h-7.1h-0.2h-5.4V43h5.4h0.2H24
			c0,0,7.8,0.2,7.8-7.2C31.8,35.8,32.1,29.7,27.2,29.7z M16.9,22.9h6.2H24c0,0,1.7,0,1.7,2.5s-1,2.9-2.2,2.9h-6.7V22.9z M23.7,38.6
			h-6.8v-6.5H24c0,0,2.6,0,2.6,3.4C26.6,38.3,24.7,38.6,23.7,38.6z"/>
		<g id="XMLID_5709_">
			<path id="XMLID_5711_" class="st2" d="M42.1,24.7c-9.4,0-9.4,9.4-9.4,9.4s-0.6,9.4,9.4,9.4c0,0,8.4,0.5,8.4-6.5h-4.3
				c0,0,0.1,2.6-3.9,2.6c0,0-4.3,0.3-4.3-4.3h12.7C50.7,35.4,52.1,24.7,42.1,24.7z M46,32.1h-8c0,0,0.5-3.8,4.3-3.8
				C46,28.3,46,32.1,46,32.1z"/>
			<rect id="XMLID_5710_" x="36.9" y="19.9" class="st2" width="10.1" height="3"/>
		</g>
	</g>
</g>
</svg>
