<?xml version="1.0" encoding="utf-8"?>
<!-- Generator: Adobe Illustrator 21.0.2, SVG Export Plug-In . SVG Version: 6.00 Build 0)  -->
<svg version="1.1" id="Layer_1" xmlns="http://www.w3.org/2000/svg" xmlns:xlink="http://www.w3.org/1999/xlink" x="0px" y="0px"
	 viewBox="0 0 39.5 25" style="enable-background:new 0 0 39.5 25;" xml:space="preserve">
<style type="text/css">
	.st0{fill:#3D5A98;}
	.st1{fill:#005CFF;}
	.st2{fill-rule:evenodd;clip-rule:evenodd;fill:#FF6600;}
	.st3{fill:#007EE5;}
	.st4{fill:#DC4E41;}
	.st5{fill:#2EDE73;}
	.st6{fill:#405DE6;}
	.st7{fill:#EA4C89;}
	.st8{fill:#0084FF;}
	.st9{fill:#1D66D8;}
	.st10{fill:#FB0A84;}
	.st11{fill:#0077B5;}
	.st12{fill:#FF4500;}
	.st13{fill:#1DA1F2;}
	.st14{fill:#303D4D;}
	.st15{fill:#BD081C;}
	.st16{fill:#F9EC31;}
	.st17{fill:#00AFF0;}
	.st18{fill:#32B8E8;}
	.st19{fill:#CD201F;}
	.st20{fill:#F29100;}
	.st21{fill:#00749A;}
	.st22{fill:#00AB6C;}
	.st23{fill:#FFFFFF;}
	.st24{fill-rule:evenodd;clip-rule:evenodd;fill:#FFFFFF;}
	.st25{fill:none;}
</style>
<g id="XMLID_5293_">
	<path id="XMLID_5299_" class="st1" d="M15.9,11.2c0,0,3.7-0.3,3.7-4.7c0-4.4-3.1-6.5-6.9-6.5H5.6H5.4H0v24.5h5.4h0.2h7.1
		c0,0,7.8,0.2,7.8-7.2C20.5,17.3,20.9,11.2,15.9,11.2z M5.6,4.4h6.2h0.9c0,0,1.7,0,1.7,2.5s-1,2.9-2.2,2.9H5.6V4.4z M12.4,20.1H5.6
		v-6.5h7.1c0,0,2.6,0,2.6,3.4C15.3,19.8,13.4,20.1,12.4,20.1z"/>
	<g id="XMLID_5294_">
		<path id="XMLID_5296_" class="st1" d="M30.9,6.2c-9.4,0-9.4,9.4-9.4,9.4S20.8,25,30.9,25c0,0,8.4,0.5,8.4-6.5H35
			c0,0,0.1,2.6-3.9,2.6c0,0-4.3,0.3-4.3-4.3h12.7C39.4,16.9,40.8,6.2,30.9,6.2z M34.7,13.6h-8c0,0,0.5-3.8,4.3-3.8
			C34.8,9.8,34.7,13.6,34.7,13.6z"/>
		<rect id="XMLID_5295_" x="25.6" y="1.4" class="st1" width="10.1" height="3"/>
	</g>
</g>
</svg>
