<?xml version="1.0" encoding="utf-8"?>
<!-- Generator: Adobe Illustrator 21.0.2, SVG Export Plug-In . SVG Version: 6.00 Build 0)  -->
<svg version="1.1" id="Layer_1" xmlns="http://www.w3.org/2000/svg" xmlns:xlink="http://www.w3.org/1999/xlink" x="0px" y="0px"
	 viewBox="0 0 63 63" style="enable-background:new 0 0 63 63;" xml:space="preserve">
<style type="text/css">
	.st0{fill:#3D5A98;}
	.st1{fill:#FFFFFF;}
	.st2{fill:#005CFF;}
	.st3{fill:#FF6600;}
	.st4{fill-rule:evenodd;clip-rule:evenodd;fill:#FFFFFF;}
	.st5{fill:#007EE5;}
	.st6{fill:#DC4E41;}
	.st7{fill:#2EDE73;}
	.st8{fill:#405DE6;}
	.st9{fill:#EA4C89;}
	.st10{fill:#0084FF;}
	.st11{fill:#1D66D8;}
	.st12{fill:#0077B5;}
	.st13{fill:#FF4500;}
	.st14{fill:none;}
	.st15{fill:#1DA1F2;}
	.st16{fill:#303D4D;}
	.st17{fill:#BD081C;}
	.st18{fill:#F9EC31;}
	.st19{fill:#00AFF0;}
	.st20{fill:#32B8E8;}
	.st21{fill:#CD201F;}
	.st22{fill:#F29100;}
	.st23{fill:#00749A;}
	.st24{fill:#00AB6C;}
	.st25{fill-rule:evenodd;clip-rule:evenodd;fill:#FF6600;}
	.st26{fill:#FB0A84;}
</style>
<g id="XMLID_270_">
	<g id="XMLID_5127_">
		<path id="XMLID_6603_" class="st3" d="M63,63H0V0h63V63z M3,60h57V3H3V60z"/>
	</g>
	<path id="XMLID_5123_" class="st25" d="M26,16.5l6.3,0c4,0,8.7,4.5,8.7,8.8v0.8c0,0.9,0.8,1.8,2.1,1.8h1.3c1.6,0,2,0.9,2,2.2v7.2
		c0,5-4.3,9.2-9.2,9.2l-12,0c-4.4,0-8.7-4.1-8.7-9.1V26C16.5,20.7,20.7,16.5,26,16.5L26,16.5z M26,24.4h5.4c1,0,1.7,0.8,1.7,1.7
		c0,1-0.8,1.7-1.7,1.7H26c-1,0-1.7-0.8-1.7-1.7C24.3,25.2,25.1,24.4,26,24.4L26,24.4z M26,35.2h10.8c1,0,1.7,0.8,1.7,1.7
		c0,1-0.8,1.7-1.7,1.7H26c-1,0-1.7-0.8-1.7-1.7C24.3,36,25.1,35.2,26,35.2L26,35.2z"/>
</g>
</svg>
