<?xml version="1.0" encoding="utf-8"?>
<!-- Generator: Adobe Illustrator 21.0.2, SVG Export Plug-In . SVG Version: 6.00 Build 0)  -->
<svg version="1.1" id="Layer_1" xmlns="http://www.w3.org/2000/svg" xmlns:xlink="http://www.w3.org/1999/xlink" x="0px" y="0px"
	 viewBox="0 0 60 60" style="enable-background:new 0 0 60 60;" xml:space="preserve">
<style type="text/css">
	.st0{fill:#3D5A98;}
	.st1{fill:#FFFFFF;}
	.st2{fill:#005CFF;}
	.st3{fill:#FF6600;}
	.st4{fill-rule:evenodd;clip-rule:evenodd;fill:#FFFFFF;}
	.st5{fill:#007EE5;}
	.st6{fill:#DC4E41;}
	.st7{fill:#2EDE73;}
	.st8{fill:#405DE6;}
	.st9{fill:#EA4C89;}
	.st10{fill:#0084FF;}
	.st11{fill:#1D66D8;}
	.st12{fill:#0077B5;}
	.st13{fill:#FF4500;}
	.st14{fill:none;}
	.st15{fill:#1DA1F2;}
	.st16{fill:#303D4D;}
	.st17{fill:#BD081C;}
	.st18{fill:#F9EC31;}
	.st19{fill:#00AFF0;}
	.st20{fill:#32B8E8;}
	.st21{fill:#CD201F;}
	.st22{fill:#F29100;}
	.st23{fill:#00749A;}
	.st24{fill:#00AB6C;}
	.st25{fill-rule:evenodd;clip-rule:evenodd;fill:#FF6600;}
	.st26{fill:#FB0A84;}
</style>
<g id="XMLID_3958_">
	<rect id="XMLID_4523_" x="0" y="0" class="st3" width="60" height="60"/>
	<path id="XMLID_4741_" class="st4" d="M24.5,15l6.3,0c4,0,8.7,4.5,8.7,8.8v0.8c0,0.9,0.8,1.8,2.1,1.8H43c1.6,0,2,0.9,2,2.2v7.2
		c0,5-4.3,9.2-9.2,9.2l-12,0c-4.4,0-8.7-4.1-8.7-9.1V24.5C15,19.2,19.2,15,24.5,15L24.5,15z M24.5,22.9H30c1,0,1.7,0.8,1.7,1.7
		c0,1-0.8,1.7-1.7,1.7h-5.4c-1,0-1.7-0.8-1.7-1.7C22.8,23.7,23.6,22.9,24.5,22.9L24.5,22.9z M24.5,33.7h10.8c1,0,1.7,0.8,1.7,1.7
		c0,1-0.8,1.7-1.7,1.7H24.5c-1,0-1.7-0.8-1.7-1.7C22.8,34.5,23.6,33.7,24.5,33.7L24.5,33.7z"/>
</g>
</svg>
