<?xml version="1.0" encoding="utf-8"?>
<!-- Generator: Adobe Illustrator 21.0.2, SVG Export Plug-In . SVG Version: 6.00 Build 0)  -->
<svg version="1.1" id="Layer_1" xmlns="http://www.w3.org/2000/svg" xmlns:xlink="http://www.w3.org/1999/xlink" x="0px" y="0px"
	 viewBox="0 0 62 62" style="enable-background:new 0 0 62 62;" xml:space="preserve">
<style type="text/css">
	.st0{fill:#3D5A98;}
	.st1{fill:#FFFFFF;}
	.st2{fill:#005CFF;}
	.st3{fill:#FF6600;}
	.st4{fill-rule:evenodd;clip-rule:evenodd;fill:#FFFFFF;}
	.st5{fill:#007EE5;}
	.st6{fill:#DC4E41;}
	.st7{fill:#2EDE73;}
	.st8{fill:#405DE6;}
	.st9{fill:#EA4C89;}
	.st10{fill:#0084FF;}
	.st11{fill:#1D66D8;}
	.st12{fill:#0077B5;}
	.st13{fill:#FF4500;}
	.st14{fill:none;}
	.st15{fill:#1DA1F2;}
	.st16{fill:#303D4D;}
	.st17{fill:#BD081C;}
	.st18{fill:#F9EC31;}
	.st19{fill:#00AFF0;}
	.st20{fill:#32B8E8;}
	.st21{fill:#CD201F;}
	.st22{fill:#F29100;}
	.st23{fill:#00749A;}
	.st24{fill:#00AB6C;}
	.st25{fill-rule:evenodd;clip-rule:evenodd;fill:#FF6600;}
	.st26{fill:#FB0A84;}
</style>
<g id="XMLID_285_">
	<g id="XMLID_5707_">
		<path id="XMLID_6706_" d="M31,62C13.9,62,0,48.1,0,31S13.9,0,31,0s31,13.9,31,31S48.1,62,31,62z M31,2C15,2,2,15,2,31s13,29,29,29
			s29-13,29-29S47,2,31,2z"/>
	</g>
	<g id="XMLID_5702_">
		<path id="XMLID_5703_" d="M32,16.2c4.4,2,8.8,4.1,13.2,6.2c0.2,0.1,0.5,0.2,0.5,0.5c0,0.3-0.3,0.4-0.5,0.5
			c-4.4,2-8.7,4.1-13.1,6.1c-0.7,0.3-1.4,0.3-2,0c-4.4-2-8.8-4.1-13.2-6.1c-0.2-0.1-0.5-0.2-0.5-0.5c0-0.3,0.3-0.4,0.5-0.5
			c4.4-2.1,8.8-4.1,13.3-6.2C30.5,15.9,31.5,16,32,16.2z M31,46c-0.3,0-0.6-0.1-1-0.3c-4.4-2-8.8-4.1-13.1-6.1
			c-0.2-0.1-0.5-0.2-0.5-0.5c0-0.3,0.3-0.4,0.5-0.5c0.7-0.3,1.5-0.7,2.2-1c0.7-0.3,1.5-0.3,2.2,0c2.9,1.4,5.8,2.7,8.7,4.1
			c0.7,0.3,1.4,0.3,2.2,0c2.9-1.4,5.8-2.7,8.7-4.1c0.7-0.3,1.4-0.3,2.1,0c0.8,0.4,1.5,0.7,2.3,1.1c0.1,0.1,0.2,0.1,0.3,0.2
			c0.2,0.2,0.2,0.4,0,0.6c-0.1,0.1-0.3,0.2-0.4,0.2c-4.3,2-8.7,4.1-13,6.1C31.7,45.8,31.3,46,31,46z M31,37.9c-0.1,0-0.7-0.2-1-0.3
			c-4.4-2-8.7-4.1-13.1-6.1c-0.2-0.1-0.5-0.2-0.5-0.5c0-0.3,0.3-0.4,0.6-0.5c0.7-0.3,1.5-0.7,2.2-1c0.7-0.3,1.4-0.3,2.1,0
			c2.9,1.4,5.9,2.7,8.8,4.1c0.7,0.3,1.4,0.3,2,0c2.9-1.4,5.9-2.7,8.8-4.1c0.7-0.3,1.4-0.3,2,0c0.8,0.4,1.5,0.7,2.3,1.1
			c0.1,0,0.2,0.1,0.3,0.2c0.2,0.2,0.2,0.4,0,0.6c-0.1,0.1-0.2,0.1-0.3,0.2c-4.4,2.1-8.8,4.1-13.2,6.2C31.7,37.7,31.1,37.9,31,37.9z"
			/>
	</g>
</g>
</svg>
