<?xml version="1.0" encoding="utf-8"?>
<!-- Generator: Adobe Illustrator 21.0.2, SVG Export Plug-In . SVG Version: 6.00 Build 0)  -->
<svg version="1.1" id="Layer_1" xmlns="http://www.w3.org/2000/svg" xmlns:xlink="http://www.w3.org/1999/xlink" x="0px" y="0px"
	 viewBox="0 0 63 63" style="enable-background:new 0 0 63 63;" xml:space="preserve">
<style type="text/css">
	.st0{fill:#3D5A98;}
	.st1{fill:#FFFFFF;}
	.st2{fill:#005CFF;}
	.st3{fill:#FF6600;}
	.st4{fill-rule:evenodd;clip-rule:evenodd;fill:#FFFFFF;}
	.st5{fill:#007EE5;}
	.st6{fill:#DC4E41;}
	.st7{fill:#2EDE73;}
	.st8{fill:#405DE6;}
	.st9{fill:#EA4C89;}
	.st10{fill:#0084FF;}
	.st11{fill:#1D66D8;}
	.st12{fill:#0077B5;}
	.st13{fill:#FF4500;}
	.st14{fill:none;}
	.st15{fill:#1DA1F2;}
	.st16{fill:#303D4D;}
	.st17{fill:#BD081C;}
	.st18{fill:#F9EC31;}
	.st19{fill:#00AFF0;}
	.st20{fill:#32B8E8;}
	.st21{fill:#CD201F;}
	.st22{fill:#F29100;}
	.st23{fill:#00749A;}
	.st24{fill:#00AB6C;}
	.st25{fill-rule:evenodd;clip-rule:evenodd;fill:#FF6600;}
	.st26{fill:#FB0A84;}
</style>
<g id="XMLID_288_">
	<g id="XMLID_4994_">
		<path id="XMLID_6571_" class="st9" d="M63,63H0V0h63V63z M3,60h57V3H3V60z"/>
	</g>
	<g id="XMLID_4985_">
		<path id="Dribbble_2_" class="st9" d="M45.3,25.7c-0.4-0.9-0.8-1.7-1.4-2.5c-0.5-0.8-1.2-1.5-1.8-2.2c-0.7-0.7-1.4-1.3-2.2-1.8
			c-0.8-0.5-1.7-1-2.5-1.4c-0.9-0.4-1.9-0.7-2.8-0.9c-1-0.2-2-0.3-3-0.3c-1,0-2,0.1-3,0.3c-1,0.2-1.9,0.5-2.8,0.9
			c-0.9,0.4-1.7,0.8-2.5,1.4c-0.8,0.5-1.5,1.2-2.2,1.8c-0.7,0.7-1.3,1.4-1.8,2.2c-0.5,0.8-1,1.7-1.4,2.5c-0.4,0.9-0.7,1.9-0.9,2.8
			c-0.2,1-0.3,2-0.3,3c0,1,0.1,2,0.3,3c0.2,1,0.5,1.9,0.9,2.8c0.4,0.9,0.8,1.7,1.4,2.6c0.5,0.8,1.2,1.5,1.8,2.2
			c0.7,0.7,1.4,1.3,2.2,1.8c0.8,0.5,1.7,1,2.5,1.4c0.9,0.4,1.9,0.7,2.8,0.9c1,0.2,2,0.3,3,0.3c1,0,2-0.1,3-0.3
			c1-0.2,1.9-0.5,2.8-0.9c0.9-0.4,1.7-0.8,2.5-1.4c0.8-0.5,1.5-1.2,2.2-1.8c0.7-0.7,1.3-1.4,1.8-2.2c0.5-0.8,1-1.7,1.4-2.6
			c0.4-0.9,0.7-1.9,0.9-2.8c0.2-1,0.3-2,0.3-3c0-1-0.1-2-0.3-3C46,27.5,45.7,26.6,45.3,25.7z M31.5,18.7c3.2,0,6.2,1.2,8.5,3.2
			c0,0-1.9,2.8-6.7,4.6c-2.2-4-4.6-7.2-4.8-7.5C29.4,18.8,30.5,18.7,31.5,18.7z M28.4,19.1C28.4,19.1,28.4,19.1,28.4,19.1
			C28.4,19.1,28.4,19.1,28.4,19.1C28.4,19.1,28.4,19.1,28.4,19.1z M26,19.9c0.2,0.2,2.5,3.4,4.8,7.4c-6.2,1.6-11.5,1.6-11.8,1.6
			C19.8,24.9,22.5,21.6,26,19.9z M22,40.1c-2-2.3-3.3-5.3-3.3-8.6c0-0.1,0-0.3,0-0.4c0.2,0,6.6,0.1,13.2-1.8c0.4,0.7,0.7,1.4,1,2.2
			c-0.2,0-0.3,0.1-0.5,0.2C25.5,33.8,22,40.1,22,40.1C22,40.1,22,40.1,22,40.1z M31.5,44.3c-3,0-5.8-1.1-8-2.8c0,0-0.1-0.1-0.2-0.1
			c0.1,0.1,0.1,0.1,0.2,0.1c0.1,0.1,0.1,0.1,0.1,0.1s2.5-5.4,10.1-8c0,0,0.1,0,0.1,0c1.8,4.7,2.5,8.6,2.7,9.7
			C35,43.9,33.3,44.3,31.5,44.3z M38.7,42.1c-0.1-0.8-0.8-4.5-2.5-9.1c4.1-0.7,7.7,0.5,8,0.6C43.6,37.1,41.5,40.2,38.7,42.1z
			 M35.4,31c-0.1-0.2-0.2-0.4-0.3-0.7c-0.3-0.6-0.6-1.2-0.9-1.9c5.1-2.1,7.1-5,7.1-5.1c1.8,2.2,2.9,5,2.9,8
			C44.1,31.3,39.8,30.4,35.4,31z"/>
	</g>
</g>
</svg>
