<?xml version="1.0" encoding="utf-8"?>
<!-- Generator: Adobe Illustrator 21.0.2, SVG Export Plug-In . SVG Version: 6.00 Build 0)  -->
<svg version="1.1" id="Layer_1" xmlns="http://www.w3.org/2000/svg" xmlns:xlink="http://www.w3.org/1999/xlink" x="0px" y="0px"
	 viewBox="0 0 60 60" style="enable-background:new 0 0 60 60;" xml:space="preserve">
<style type="text/css">
	.st0{fill:#3D5A98;}
	.st1{fill:#FFFFFF;}
	.st2{fill:#005CFF;}
	.st3{fill:#FF6600;}
	.st4{fill-rule:evenodd;clip-rule:evenodd;fill:#FFFFFF;}
	.st5{fill:#007EE5;}
	.st6{fill:#DC4E41;}
	.st7{fill:#2EDE73;}
	.st8{fill:#405DE6;}
	.st9{fill:#EA4C89;}
	.st10{fill:#0084FF;}
	.st11{fill:#1D66D8;}
	.st12{fill:#0077B5;}
	.st13{fill:#FF4500;}
	.st14{fill:none;}
	.st15{fill:#1DA1F2;}
	.st16{fill:#303D4D;}
	.st17{fill:#BD081C;}
	.st18{fill:#F9EC31;}
	.st19{fill:#00AFF0;}
	.st20{fill:#32B8E8;}
	.st21{fill:#CD201F;}
	.st22{fill:#F29100;}
	.st23{fill:#00749A;}
	.st24{fill:#00AB6C;}
	.st25{fill-rule:evenodd;clip-rule:evenodd;fill:#FF6600;}
	.st26{fill:#FB0A84;}
</style>
<g id="XMLID_5746_">
	<path id="XMLID_712_" class="st11" d="M30,60L30,60C13.4,60,0,46.6,0,30v0C0,13.4,13.4,0,30,0h0c16.6,0,30,13.4,30,30v0
		C60,46.6,46.6,60,30,60z"/>
	<g id="XMLID_686_">
		<g id="XMLID_705_">
			<path id="XMLID_71_" class="st1" d="M27.9,30c0,3.6-2.9,6.4-6.4,6.4S15,33.6,15,30c0-3.6,2.9-6.4,6.4-6.4S27.9,26.4,27.9,30"/>
		</g>
		<g id="XMLID_687_">
			<path id="XMLID_63_" class="st1" d="M45,30c0,3.6-2.9,6.4-6.4,6.4c-3.6,0-6.4-2.9-6.4-6.4c0-3.6,2.9-6.4,6.4-6.4
				C42.1,23.6,45,26.4,45,30"/>
		</g>
	</g>
</g>
</svg>
