<?xml version="1.0" encoding="utf-8"?>
<!-- Generator: Adobe Illustrator 21.0.2, SVG Export Plug-In . SVG Version: 6.00 Build 0)  -->
<svg version="1.1" id="Layer_1" xmlns="http://www.w3.org/2000/svg" xmlns:xlink="http://www.w3.org/1999/xlink" x="0px" y="0px"
	 viewBox="0 0 62 62" style="enable-background:new 0 0 62 62;" xml:space="preserve">
<style type="text/css">
	.st0{fill:#3D5A98;}
	.st1{fill:#FFFFFF;}
	.st2{fill:#005CFF;}
	.st3{fill:#FF6600;}
	.st4{fill-rule:evenodd;clip-rule:evenodd;fill:#FFFFFF;}
	.st5{fill:#007EE5;}
	.st6{fill:#DC4E41;}
	.st7{fill:#2EDE73;}
	.st8{fill:#405DE6;}
	.st9{fill:#EA4C89;}
	.st10{fill:#0084FF;}
	.st11{fill:#1D66D8;}
	.st12{fill:#0077B5;}
	.st13{fill:#FF4500;}
	.st14{fill:none;}
	.st15{fill:#1DA1F2;}
	.st16{fill:#303D4D;}
	.st17{fill:#BD081C;}
	.st18{fill:#F9EC31;}
	.st19{fill:#00AFF0;}
	.st20{fill:#32B8E8;}
	.st21{fill:#CD201F;}
	.st22{fill:#F29100;}
	.st23{fill:#00749A;}
	.st24{fill:#00AB6C;}
	.st25{fill-rule:evenodd;clip-rule:evenodd;fill:#FF6600;}
	.st26{fill:#FB0A84;}
</style>
<g id="XMLID_6545_">
	<path id="K_7_" class="st7" d="M28,26.2l5.5-8c1-1.5,2.4-2.3,4-2.3c1.3,0,2.5,0.5,3.5,1.4c1,1,1.5,2.1,1.5,3.4c0,1-0.3,1.8-0.8,2.6
		l-5,7.2l6.1,7.7c0.9,1.2,1.1,2.6,0.7,4.4c-0.1,0.2-0.2,0.4-0.3,0.6c-1.1,1.8-2.6,2.6-4.4,2.6c-1.5,0-2.6-0.5-3.4-1.5L28,35.3v5.1
		c0,1.5-0.3,2.6-0.8,3.4c-0.9,1.5-2.3,2.2-4,2.2c-1.6,0-2.8-0.5-3.7-1.6c-0.8-1-1.2-2.3-1.2-4v-19c0-1.6,0.4-2.8,1.3-3.9
		c0.9-1.1,2.1-1.6,3.6-1.6c1.5,0,2.7,0.5,3.7,1.6c0.5,0.6,0.9,1.2,1,1.8c0.1,0.4,0.1,1.1,0.1,2.1V26.2z"/>
	<g id="XMLID_4577_">
		<path id="XMLID_102_" class="st7" d="M31,62C13.9,62,0,48.1,0,31S13.9,0,31,0s31,13.9,31,31S48.1,62,31,62z M31,2C15,2,2,15,2,31
			s13,29,29,29s29-13,29-29S47,2,31,2z"/>
	</g>
</g>
</svg>
