<?xml version="1.0" encoding="utf-8"?>
<!-- Generator: Adobe Illustrator 21.0.2, SVG Export Plug-In . SVG Version: 6.00 Build 0)  -->
<svg version="1.1" id="Layer_1" xmlns="http://www.w3.org/2000/svg" xmlns:xlink="http://www.w3.org/1999/xlink" x="0px" y="0px"
	 viewBox="0 0 60 60" style="enable-background:new 0 0 60 60;" xml:space="preserve">
<style type="text/css">
	.st0{fill:#3D5A98;}
	.st1{fill:#FFFFFF;}
	.st2{fill:#005CFF;}
	.st3{fill:#FF6600;}
	.st4{fill-rule:evenodd;clip-rule:evenodd;fill:#FFFFFF;}
	.st5{fill:#007EE5;}
	.st6{fill:#DC4E41;}
	.st7{fill:#2EDE73;}
	.st8{fill:#405DE6;}
	.st9{fill:#EA4C89;}
	.st10{fill:#0084FF;}
	.st11{fill:#1D66D8;}
	.st12{fill:#0077B5;}
	.st13{fill:#FF4500;}
	.st14{fill:none;}
	.st15{fill:#1DA1F2;}
	.st16{fill:#303D4D;}
	.st17{fill:#BD081C;}
	.st18{fill:#F9EC31;}
	.st19{fill:#00AFF0;}
	.st20{fill:#32B8E8;}
	.st21{fill:#CD201F;}
	.st22{fill:#F29100;}
	.st23{fill:#00749A;}
	.st24{fill:#00AB6C;}
	.st25{fill-rule:evenodd;clip-rule:evenodd;fill:#FF6600;}
	.st26{fill:#FB0A84;}
</style>
<g id="XMLID_3016_">
	<rect id="XMLID_4865_" x="0" y="0" class="st24" width="60" height="60"/>
	<g id="XMLID_3012_">
		<path id="XMLID_4038_" class="st1" d="M47.2,20.6l-11-5.5c-0.1,0-0.1,0-0.2,0c0,0,0,0,0,0c-0.1,0-0.3,0.1-0.3,0.2l-6.8,11.1
			l7.6,12.3l10.9-17.7C47.4,20.8,47.3,20.6,47.2,20.6z"/>
		<polygon id="XMLID_4013_" class="st1" points="25.2,22.4 25.2,34.3 35.8,39.6 		"/>
		<path id="XMLID_3019_" class="st1" d="M36.7,40l9.7,4.9c0.5,0.3,1,0,1-0.6V22.6L36.7,40z"/>
		<path id="XMLID_3011_" class="st1" d="M24,20.6l-10.2-5.1l-0.6-0.3c-0.1,0-0.2-0.1-0.3-0.1c-0.1,0-0.2,0-0.3,0.1
			c-0.1,0.1-0.1,0.2-0.1,0.3v23.3c0,0.4,0.3,0.9,0.6,1l10,5c0.1,0.1,0.3,0.1,0.4,0.1c0.3,0,0.6-0.3,0.6-0.7V20.8
			C24.2,20.8,24.1,20.7,24,20.6z"/>
	</g>
</g>
</svg>
