<?xml version="1.0" encoding="utf-8"?>
<!-- Generator: Adobe Illustrator 21.0.2, SVG Export Plug-In . SVG Version: 6.00 Build 0)  -->
<svg version="1.1" id="Layer_1" xmlns="http://www.w3.org/2000/svg" xmlns:xlink="http://www.w3.org/1999/xlink" x="0px" y="0px"
	 viewBox="0 0 30 30" style="enable-background:new 0 0 30 30;" xml:space="preserve">
<style type="text/css">
	.st0{fill:#3D5A98;}
	.st1{fill:#005CFF;}
	.st2{fill-rule:evenodd;clip-rule:evenodd;fill:#FF6600;}
	.st3{fill:#007EE5;}
	.st4{fill:#DC4E41;}
	.st5{fill:#2EDE73;}
	.st6{fill:#405DE6;}
	.st7{fill:#EA4C89;}
	.st8{fill:#0084FF;}
	.st9{fill:#1D66D8;}
	.st10{fill:#FB0A84;}
	.st11{fill:#0077B5;}
	.st12{fill:#FF4500;}
	.st13{fill:#1DA1F2;}
	.st14{fill:#303D4D;}
	.st15{fill:#BD081C;}
	.st16{fill:#F9EC31;}
	.st17{fill:#00AFF0;}
	.st18{fill:#32B8E8;}
	.st19{fill:#CD201F;}
	.st20{fill:#F29100;}
	.st21{fill:#00749A;}
	.st22{fill:#00AB6C;}
	.st23{fill:#FFFFFF;}
	.st24{fill-rule:evenodd;clip-rule:evenodd;fill:#FFFFFF;}
	.st25{fill:none;}
</style>
<g id="XMLID_5196_">
	<g id="XMLID_5197_">
		<path id="XMLID_5198_" class="st15" d="M15,0C6.7,0,0,6.7,0,15c0,6.4,4,11.8,9.5,14c-0.1-1.2-0.2-3,0.1-4.3
			c0.3-1.2,1.8-7.5,1.8-7.5s-0.4-0.9-0.4-2.2c0-2.1,1.2-3.6,2.7-3.6c1.3,0,1.9,1,1.9,2.1c0,1.3-0.8,3.2-1.2,5
			c-0.4,1.5,0.7,2.7,2.2,2.7c2.7,0,4.7-2.8,4.7-6.9c0-3.6-2.6-6.1-6.3-6.1c-4.3,0-6.8,3.2-6.8,6.5c0,1.3,0.5,2.7,1.1,3.4
			c0.1,0.1,0.1,0.3,0.1,0.4C9.3,19,9,20,9,20.2c-0.1,0.3-0.2,0.3-0.5,0.2c-1.9-0.9-3-3.6-3-5.8c0-4.7,3.4-9.1,9.9-9.1
			c5.2,0,9.2,3.7,9.2,8.7c0,5.2-3.3,9.3-7.8,9.3c-1.5,0-2.9-0.8-3.4-1.7c0,0-0.8,2.9-0.9,3.6c-0.3,1.3-1.3,2.9-1.9,3.9
			C12,29.8,13.5,30,15,30c8.3,0,15-6.7,15-15C30,6.7,23.3,0,15,0z"/>
	</g>
</g>
</svg>
