<?xml version="1.0" encoding="utf-8"?>
<!-- Generator: Adobe Illustrator 21.0.2, SVG Export Plug-In . SVG Version: 6.00 Build 0)  -->
<svg version="1.1" id="Layer_1" xmlns="http://www.w3.org/2000/svg" xmlns:xlink="http://www.w3.org/1999/xlink" x="0px" y="0px"
	 viewBox="0 0 60 60" style="enable-background:new 0 0 60 60;" xml:space="preserve">
<style type="text/css">
	.st0{fill:#3D5A98;}
	.st1{fill:#FFFFFF;}
	.st2{fill:#005CFF;}
	.st3{fill:#FF6600;}
	.st4{fill-rule:evenodd;clip-rule:evenodd;fill:#FFFFFF;}
	.st5{fill:#007EE5;}
	.st6{fill:#DC4E41;}
	.st7{fill:#2EDE73;}
	.st8{fill:#405DE6;}
	.st9{fill:#EA4C89;}
	.st10{fill:#0084FF;}
	.st11{fill:#1D66D8;}
	.st12{fill:#0077B5;}
	.st13{fill:#FF4500;}
	.st14{fill:none;}
	.st15{fill:#1DA1F2;}
	.st16{fill:#303D4D;}
	.st17{fill:#BD081C;}
	.st18{fill:#F9EC31;}
	.st19{fill:#00AFF0;}
	.st20{fill:#32B8E8;}
	.st21{fill:#CD201F;}
	.st22{fill:#F29100;}
	.st23{fill:#00749A;}
	.st24{fill:#00AB6C;}
	.st25{fill-rule:evenodd;clip-rule:evenodd;fill:#FF6600;}
	.st26{fill:#FB0A84;}
</style>
<g id="XMLID_4396_">
	<rect id="XMLID_4755_" x="0" y="0" class="st13" width="60" height="60"/>
	<g id="XMLID_3017_">
		<path id="XMLID_3018_" class="st14" d="M17.9,27.3c-0.5-0.3-1-0.5-1.6-0.5c-1.5,0-2.8,1.3-2.8,2.8c0,0.8,0.4,1.6,1,2.1
			C15.1,30,16.3,28.5,17.9,27.3z"/>
		<circle id="XMLID_4649_" class="st14" cx="42.4" cy="18.3" r="2.1"/>
		<path id="XMLID_4686_" class="st14" d="M43.7,26.8c-0.6,0-1.1,0.2-1.6,0.5c1.6,1.3,2.8,2.8,3.4,4.4c0.6-0.5,1-1.3,1-2.1
			C46.5,28.1,45.2,26.8,43.7,26.8z"/>
		<path id="XMLID_4737_" class="st1" d="M47.8,29.6c0-2.3-1.8-4.1-4.1-4.1c-1,0-1.9,0.4-2.7,1c-2.7-1.7-6.2-2.8-10.1-2.9l2.3-6.6
			l5.8,1.4c0,1.8,1.5,3.3,3.3,3.3c1.8,0,3.3-1.5,3.3-3.3S44.2,15,42.4,15c-1.4,0-2.6,0.9-3.1,2.1l-6.9-1.6l-2.9,8.1
			c-4.1,0.1-7.8,1.2-10.5,2.9c-0.7-0.6-1.7-1-2.7-1c-2.3,0-4.1,1.8-4.1,4.1c0,1.4,0.7,2.7,1.9,3.4C14,33.4,14,33.9,14,34.3
			C14,40.2,21.2,45,30,45c8.8,0,16-4.8,16-10.7c0-0.4,0-0.8-0.1-1.2C47,32.3,47.8,31,47.8,29.6z M42.4,16.3c1.1,0,2.1,0.9,2.1,2.1
			c0,1.1-0.9,2.1-2.1,2.1s-2.1-0.9-2.1-2.1C40.3,17.2,41.2,16.3,42.4,16.3z M24.9,29.9c1.4,0,2.5,1.1,2.5,2.5c0,1.4-1.1,2.5-2.5,2.5
			c-1.4,0-2.5-1.1-2.5-2.5C22.4,31,23.5,29.9,24.9,29.9z M24.2,38.3c0.3-0.2,0.7-0.2,0.9,0.1c0,0,1.4,1.5,4.8,1.5c3.5,0,5-1.5,5-1.5
			c0.2-0.3,0.7-0.3,0.9,0c0.3,0.2,0.3,0.6,0,0.9c-0.1,0.1-1.9,1.9-6,1.9c-4.1,0-5.7-1.9-5.8-1.9C23.9,38.9,23.9,38.5,24.2,38.3z
			 M35.4,34.9c-1.4,0-2.5-1.1-2.5-2.5c0-1.4,1.1-2.5,2.5-2.5c1.4,0,2.5,1.1,2.5,2.5C37.9,33.8,36.8,34.9,35.4,34.9z M13.5,29.6
			c0-1.5,1.3-2.8,2.8-2.8c0.6,0,1.1,0.2,1.6,0.5c-1.6,1.3-2.8,2.8-3.4,4.4C13.9,31.2,13.5,30.4,13.5,29.6z M45.5,31.7
			c-0.6-1.7-1.8-3.2-3.4-4.4c0.5-0.3,1-0.5,1.6-0.5c1.5,0,2.8,1.3,2.8,2.8C46.5,30.4,46.1,31.2,45.5,31.7z"/>
		<circle id="XMLID_4753_" class="st13" cx="24.9" cy="32.4" r="2.5"/>
		<circle id="XMLID_4754_" class="st13" cx="35.4" cy="32.4" r="2.5"/>
		<path id="XMLID_4756_" class="st13" d="M29.9,41.1c4.1,0,5.9-1.8,6-1.9c0.2-0.3,0.2-0.7,0-0.9c-0.3-0.2-0.7-0.2-0.9,0
			c0,0-1.5,1.5-5,1.5c-3.4,0-4.8-1.5-4.8-1.5c-0.2-0.3-0.6-0.3-0.9-0.1c-0.3,0.2-0.3,0.6-0.1,0.9C24.2,39.2,25.8,41.1,29.9,41.1z"/>
	</g>
</g>
</svg>
