<?xml version="1.0" encoding="utf-8"?>
<!-- Generator: Adobe Illustrator 21.0.2, SVG Export Plug-In . SVG Version: 6.00 Build 0)  -->
<svg version="1.1" id="Layer_1" xmlns="http://www.w3.org/2000/svg" xmlns:xlink="http://www.w3.org/1999/xlink" x="0px" y="0px"
	 viewBox="0 0 60 60" style="enable-background:new 0 0 60 60;" xml:space="preserve">
<style type="text/css">
	.st0{fill:#3D5A98;}
	.st1{fill:#FFFFFF;}
	.st2{fill:#005CFF;}
	.st3{fill:#FF6600;}
	.st4{fill-rule:evenodd;clip-rule:evenodd;fill:#FFFFFF;}
	.st5{fill:#007EE5;}
	.st6{fill:#DC4E41;}
	.st7{fill:#2EDE73;}
	.st8{fill:#405DE6;}
	.st9{fill:#EA4C89;}
	.st10{fill:#0084FF;}
	.st11{fill:#1D66D8;}
	.st12{fill:#0077B5;}
	.st13{fill:#FF4500;}
	.st14{fill:none;}
	.st15{fill:#1DA1F2;}
	.st16{fill:#303D4D;}
	.st17{fill:#BD081C;}
	.st18{fill:#F9EC31;}
	.st19{fill:#00AFF0;}
	.st20{fill:#32B8E8;}
	.st21{fill:#CD201F;}
	.st22{fill:#F29100;}
	.st23{fill:#00749A;}
	.st24{fill:#00AB6C;}
	.st25{fill-rule:evenodd;clip-rule:evenodd;fill:#FF6600;}
	.st26{fill:#FB0A84;}
</style>
<g id="XMLID_5647_">
	<path id="XMLID_633_" class="st18" d="M30,60L30,60C13.4,60,0,46.6,0,30v0C0,13.4,13.4,0,30,0h0c16.6,0,30,13.4,30,30v0
		C60,46.6,46.6,60,30,60z"/>
	<path id="XMLID_632_" class="st1" d="M45.4,37.5c-4.3-0.7-6.3-5.2-6.4-5.4c0,0,0,0,0,0c-0.2-0.5-0.3-0.9-0.2-1.2
		c0.3-0.6,1.2-0.9,1.8-1.1c0.2-0.1,0.3-0.1,0.5-0.2c1.1-0.4,1.6-1.2,1.6-1.8c0-0.5-0.4-1.4-1-1.4h0c-0.2,0-0.4,0.1-0.7,0.1
		c-0.2,0-0.4,0.1-0.6,0.2c-0.5,0.2-1,0.4-1.4,0.5c-0.3,0-0.4,0-0.5-0.1c0-0.2,0-0.4,0-0.7l0-0.1c0.1-2.2,0.3-5.1-0.4-6.7
		c-2.1-4.7-6.6-5.3-7.9-5.3h0h-0.1c0,0-0.5,0.2-0.6,0.2c-1.3,0-5.8,0.5-7.9,5.2c-0.7,1.6-0.5,4.3-0.4,6.5c0,0.3,0,0.5,0,0.8
		c-0.1,0.1-0.3,0.1-0.6,0.1c-0.4,0-0.9-0.1-1.5-0.4C19.2,27,19,27,18.8,27c-0.7,0-1.4,0.4-1.6,1.1c-0.1,0.5,0.1,1.1,1.6,1.7
		c0.1,0.1,0.3,0.1,0.5,0.2c0.6,0.2,1.5,0.5,1.8,1.1c0.1,0.3,0.1,0.7-0.2,1.2c0,0,0,0,0,0c-0.1,0.2-2,4.6-6.4,5.4
		c-0.3,0.1-0.6,0.4-0.6,0.7c0,0.1,0,0.2,0.1,0.3c0.3,0.8,1.7,1.3,4.2,1.7c0.1,0.1,0.2,0.5,0.2,0.8c0.1,0.2,0.1,0.5,0.2,0.7
		c0.1,0.3,0.3,0.6,0.8,0.6c0.2,0,0.4,0,0.7-0.1c0.4-0.1,1-0.2,1.7-0.2c0.4,0,0.8,0,1.2,0.1c0.8,0.1,1.5,0.6,2.3,1.2
		c1.1,0.8,2.4,1.7,4.4,1.7c0.1,0,0.1,0,0.2,0c0.1,0,0.1,0,0.2,0c2,0,3.2-0.9,4.4-1.7c0.8-0.6,1.5-1,2.3-1.2c0.4-0.1,0.8-0.1,1.2-0.1
		c0.7,0,1.2-0.3,1.7-0.2c0.3,0.1,0.5-0.3,0.7-0.3h0h0c0.4,0,0.6,0.2,0.7-0.2c0.1-0.3,0.1-0.3,0.2-0.6c0.1-0.2,0.1-0.6,0.2-0.7
		c2.5-0.4,3.9-0.9,4.2-1.7c0-0.1,0.1-0.2,0.1-0.3C46,37.9,45.7,37.6,45.4,37.5z"/>
</g>
</svg>
