<?xml version="1.0" encoding="utf-8"?>
<!-- Generator: Adobe Illustrator 21.0.2, SVG Export Plug-In . SVG Version: 6.00 Build 0)  -->
<svg version="1.1" id="Layer_1" xmlns="http://www.w3.org/2000/svg" xmlns:xlink="http://www.w3.org/1999/xlink" x="0px" y="0px"
	 viewBox="0 0 63 63" style="enable-background:new 0 0 63 63;" xml:space="preserve">
<style type="text/css">
	.st0{fill:#3D5A98;}
	.st1{fill:#FFFFFF;}
	.st2{fill:#005CFF;}
	.st3{fill:#FF6600;}
	.st4{fill-rule:evenodd;clip-rule:evenodd;fill:#FFFFFF;}
	.st5{fill:#007EE5;}
	.st6{fill:#DC4E41;}
	.st7{fill:#2EDE73;}
	.st8{fill:#405DE6;}
	.st9{fill:#EA4C89;}
	.st10{fill:#0084FF;}
	.st11{fill:#1D66D8;}
	.st12{fill:#0077B5;}
	.st13{fill:#FF4500;}
	.st14{fill:none;}
	.st15{fill:#1DA1F2;}
	.st16{fill:#303D4D;}
	.st17{fill:#BD081C;}
	.st18{fill:#F9EC31;}
	.st19{fill:#00AFF0;}
	.st20{fill:#32B8E8;}
	.st21{fill:#CD201F;}
	.st22{fill:#F29100;}
	.st23{fill:#00749A;}
	.st24{fill:#00AB6C;}
	.st25{fill-rule:evenodd;clip-rule:evenodd;fill:#FF6600;}
	.st26{fill:#FB0A84;}
</style>
<g id="XMLID_792_">
	<g id="XMLID_4907_">
		<path id="XMLID_5234_" class="st15" d="M63,63H0V0h63V63z M3,60h57V3H3V60z"/>
	</g>
	<path id="XMLID_4906_" class="st15" d="M24.7,46.5C38.6,46.5,46.2,35,46.2,25c0-0.3,0-0.7,0-1c1.5-1.1,2.8-2.4,3.8-3.9
		c-1.4,0.6-2.8,1-4.3,1.2c1.6-0.9,2.8-2.4,3.3-4.2c-1.5,0.9-3.1,1.5-4.8,1.8c-1.4-1.5-3.4-2.4-5.5-2.4c-4.2,0-7.6,3.4-7.6,7.6
		c0,0.6,0.1,1.2,0.2,1.7c-6.3-0.3-11.9-3.3-15.6-7.9c-0.7,1.1-1,2.4-1,3.8c0,2.6,1.3,4.9,3.4,6.3c-1.2,0-2.4-0.4-3.4-0.9
		c0,0,0,0.1,0,0.1c0,3.7,2.6,6.7,6.1,7.4c-0.6,0.2-1.3,0.3-2,0.3c-0.5,0-1,0-1.4-0.1c1,3,3.8,5.2,7.1,5.3c-2.6,2-5.9,3.2-9.4,3.2
		c-0.6,0-1.2,0-1.8-0.1C16.4,45.2,20.4,46.5,24.7,46.5"/>
</g>
</svg>
