<?xml version="1.0" encoding="utf-8"?>
<!-- Generator: Adobe Illustrator 21.0.2, SVG Export Plug-In . SVG Version: 6.00 Build 0)  -->
<svg version="1.1" id="Layer_1" xmlns="http://www.w3.org/2000/svg" xmlns:xlink="http://www.w3.org/1999/xlink" x="0px" y="0px"
	 viewBox="0 0 36.9 30" style="enable-background:new 0 0 36.9 30;" xml:space="preserve">
<style type="text/css">
	.st0{fill:#3D5A98;}
	.st1{fill:#005CFF;}
	.st2{fill-rule:evenodd;clip-rule:evenodd;fill:#FF6600;}
	.st3{fill:#007EE5;}
	.st4{fill:#DC4E41;}
	.st5{fill:#2EDE73;}
	.st6{fill:#405DE6;}
	.st7{fill:#EA4C89;}
	.st8{fill:#0084FF;}
	.st9{fill:#1D66D8;}
	.st10{fill:#FB0A84;}
	.st11{fill:#0077B5;}
	.st12{fill:#FF4500;}
	.st13{fill:#1DA1F2;}
	.st14{fill:#303D4D;}
	.st15{fill:#BD081C;}
	.st16{fill:#F9EC31;}
	.st17{fill:#00AFF0;}
	.st18{fill:#32B8E8;}
	.st19{fill:#CD201F;}
	.st20{fill:#F29100;}
	.st21{fill:#00749A;}
	.st22{fill:#00AB6C;}
	.st23{fill:#FFFFFF;}
	.st24{fill-rule:evenodd;clip-rule:evenodd;fill:#FFFFFF;}
	.st25{fill:none;}
</style>
<path id="XMLID_5202_" class="st13" d="M11.6,30c13.9,0,21.5-11.5,21.5-21.5c0-0.3,0-0.7,0-1c1.5-1.1,2.8-2.4,3.8-3.9
	c-1.4,0.6-2.8,1-4.3,1.2c1.6-0.9,2.8-2.4,3.3-4.2c-1.5,0.9-3.1,1.5-4.8,1.8C29.7,0.9,27.7,0,25.6,0C21.4,0,18,3.4,18,7.6
	c0,0.6,0.1,1.2,0.2,1.7C11.9,9,6.3,6,2.6,1.4c-0.7,1.1-1,2.4-1,3.8c0,2.6,1.3,4.9,3.4,6.3c-1.2,0-2.4-0.4-3.4-0.9c0,0,0,0.1,0,0.1
	c0,3.7,2.6,6.7,6.1,7.4c-0.6,0.2-1.3,0.3-2,0.3c-0.5,0-1,0-1.4-0.1c1,3,3.8,5.2,7.1,5.3c-2.6,2-5.9,3.2-9.4,3.2
	c-0.6,0-1.2,0-1.8-0.1C3.4,28.7,7.3,30,11.6,30"/>
</svg>
