<?xml version="1.0" encoding="utf-8"?>
<!-- Generator: Adobe Illustrator 21.0.2, SVG Export Plug-In . SVG Version: 6.00 Build 0)  -->
<svg version="1.1" id="Layer_1" xmlns="http://www.w3.org/2000/svg" xmlns:xlink="http://www.w3.org/1999/xlink" x="0px" y="0px"
	 viewBox="0 0 62 62" style="enable-background:new 0 0 62 62;" xml:space="preserve">
<style type="text/css">
	.st0{fill:#3D5A98;}
	.st1{fill:#FFFFFF;}
	.st2{fill:#005CFF;}
	.st3{fill:#FF6600;}
	.st4{fill-rule:evenodd;clip-rule:evenodd;fill:#FFFFFF;}
	.st5{fill:#007EE5;}
	.st6{fill:#DC4E41;}
	.st7{fill:#2EDE73;}
	.st8{fill:#405DE6;}
	.st9{fill:#EA4C89;}
	.st10{fill:#0084FF;}
	.st11{fill:#1D66D8;}
	.st12{fill:#0077B5;}
	.st13{fill:#FF4500;}
	.st14{fill:none;}
	.st15{fill:#1DA1F2;}
	.st16{fill:#303D4D;}
	.st17{fill:#BD081C;}
	.st18{fill:#F9EC31;}
	.st19{fill:#00AFF0;}
	.st20{fill:#32B8E8;}
	.st21{fill:#CD201F;}
	.st22{fill:#F29100;}
	.st23{fill:#00749A;}
	.st24{fill:#00AB6C;}
	.st25{fill-rule:evenodd;clip-rule:evenodd;fill:#FF6600;}
	.st26{fill:#FB0A84;}
</style>
<g id="XMLID_100_">
	<g id="XMLID_5599_">
		<path id="XMLID_6658_" class="st20" d="M31,62C13.9,62,0,48.1,0,31S13.9,0,31,0s31,13.9,31,31S48.1,62,31,62z M31,2
			C15,2,2,15,2,31s13,29,29,29s29-13,29-29S47,2,31,2z"/>
	</g>
	<g id="XMLID_5597_">
		<path id="XMLID_5598_" class="st20" d="M48.3,22.9c-0.2,3.4-2.5,8-7.1,13.9c-4.7,6.1-8.7,9.2-11.9,9.2c-2,0-3.7-1.9-5.1-5.6
			c-0.9-3.4-1.9-6.8-2.8-10.3c-1-3.7-2.1-5.6-3.3-5.6c-0.3,0-1.2,0.5-2.7,1.6l-1.6-2.1c1.7-1.5,3.4-3,5.1-4.5c2.3-2,4-3,5.1-3.1
			c2.7-0.3,4.4,1.6,5,5.5c0.7,4.3,1.1,6.9,1.4,7.9c0.8,3.5,1.6,5.3,2.6,5.3c0.7,0,1.8-1.1,3.3-3.4c1.4-2.3,2.2-4,2.3-5.2
			c0.2-2-0.6-3-2.3-3c-0.8,0-1.7,0.2-2.6,0.6c1.7-5.6,5-8.3,9.7-8.1C46.8,16.1,48.5,18.4,48.3,22.9"/>
	</g>
</g>
</svg>
