<?xml version="1.0" encoding="utf-8"?>
<!-- Generator: Adobe Illustrator 21.0.2, SVG Export Plug-In . SVG Version: 6.00 Build 0)  -->
<svg version="1.1" id="Layer_1" xmlns="http://www.w3.org/2000/svg" xmlns:xlink="http://www.w3.org/1999/xlink" x="0px" y="0px"
	 viewBox="0 0 62 62" style="enable-background:new 0 0 62 62;" xml:space="preserve">
<style type="text/css">
	.st0{fill:#3D5A98;}
	.st1{fill:#FFFFFF;}
	.st2{fill:#005CFF;}
	.st3{fill:#FF6600;}
	.st4{fill-rule:evenodd;clip-rule:evenodd;fill:#FFFFFF;}
	.st5{fill:#007EE5;}
	.st6{fill:#DC4E41;}
	.st7{fill:#2EDE73;}
	.st8{fill:#405DE6;}
	.st9{fill:#EA4C89;}
	.st10{fill:#0084FF;}
	.st11{fill:#1D66D8;}
	.st12{fill:#0077B5;}
	.st13{fill:#FF4500;}
	.st14{fill:none;}
	.st15{fill:#1DA1F2;}
	.st16{fill:#303D4D;}
	.st17{fill:#BD081C;}
	.st18{fill:#F9EC31;}
	.st19{fill:#00AFF0;}
	.st20{fill:#32B8E8;}
	.st21{fill:#CD201F;}
	.st22{fill:#F29100;}
	.st23{fill:#00749A;}
	.st24{fill:#00AB6C;}
	.st25{fill-rule:evenodd;clip-rule:evenodd;fill:#FF6600;}
	.st26{fill:#FB0A84;}
</style>
<g id="XMLID_6544_">
	<g id="XMLID_5564_">
		<path id="XMLID_6626_" class="st23" d="M31,62C13.9,62,0,48.1,0,31S13.9,0,31,0s31,13.9,31,31S48.1,62,31,62z M31,2
			C15,2,2,15,2,31s13,29,29,29s29-13,29-29S47,2,31,2z"/>
	</g>
	<g id="XMLID_5426_">
		<path id="XMLID_5496_" class="st23" d="M18.1,31c0,5.1,3,9.5,7.3,11.6l-6.1-16.8C18.5,27.4,18.1,29.1,18.1,31z"/>
		<path id="XMLID_5495_" class="st23" d="M39.7,30.3c0-1.6-0.6-2.7-1.1-3.5c-0.7-1.1-1.3-2-1.3-3c0-1.2,0.9-2.3,2.2-2.3
			c0.1,0,0.1,0,0.2,0c-2.3-2.1-5.3-3.4-8.7-3.4c-4.5,0-8.5,2.3-10.8,5.8c0.3,0,0.6,0,0.8,0c1.3,0,3.4-0.2,3.4-0.2
			c0.7,0,0.8,1,0.1,1.1c0,0-0.7,0.1-1.5,0.1l4.7,13.9l2.8-8.4l-2-5.5c-0.7,0-1.3-0.1-1.3-0.1c-0.7,0-0.6-1.1,0.1-1.1
			c0,0,2.1,0.2,3.4,0.2c1.3,0,3.4-0.2,3.4-0.2c0.7,0,0.8,1,0.1,1.1c0,0-0.7,0.1-1.5,0.1l4.7,13.8l1.3-4.3
			C39.3,32.7,39.7,31.5,39.7,30.3z"/>
		<path id="XMLID_5494_" class="st23" d="M31.2,32.1l-3.9,11.2c1.2,0.3,2.4,0.5,3.6,0.5c1.5,0,2.9-0.3,4.3-0.7
			c0-0.1-0.1-0.1-0.1-0.2L31.2,32.1z"/>
		<path id="XMLID_5493_" class="st23" d="M42.3,24.8c0.1,0.4,0.1,0.8,0.1,1.3c0,1.3-0.2,2.8-1,4.6l-3.9,11.4
			c3.8-2.2,6.4-6.4,6.4-11.1C43.9,28.8,43.3,26.7,42.3,24.8z"/>
		<path id="XMLID_5440_" class="st23" d="M31,16c-8.3,0-15,6.7-15,15c0,8.3,6.7,15,15,15c8.3,0,15-6.7,15-15C46,22.7,39.3,16,31,16z
			 M31,45.3c-7.9,0-14.3-6.4-14.3-14.3c0-7.9,6.4-14.3,14.3-14.3c7.9,0,14.3,6.4,14.3,14.3C45.3,38.9,38.9,45.3,31,45.3z"/>
	</g>
</g>
</svg>
