<?xml version="1.0" encoding="utf-8"?>
<!-- Generator: Adobe Illustrator 21.0.2, SVG Export Plug-In . SVG Version: 6.00 Build 0)  -->
<svg version="1.1" id="Layer_1" xmlns="http://www.w3.org/2000/svg" xmlns:xlink="http://www.w3.org/1999/xlink" x="0px" y="0px"
	 viewBox="0 0 63 63" style="enable-background:new 0 0 63 63;" xml:space="preserve">
<style type="text/css">
	.st0{fill:#3D5A98;}
	.st1{fill:#FFFFFF;}
	.st2{fill:#005CFF;}
	.st3{fill:#FF6600;}
	.st4{fill-rule:evenodd;clip-rule:evenodd;fill:#FFFFFF;}
	.st5{fill:#007EE5;}
	.st6{fill:#DC4E41;}
	.st7{fill:#2EDE73;}
	.st8{fill:#405DE6;}
	.st9{fill:#EA4C89;}
	.st10{fill:#0084FF;}
	.st11{fill:#1D66D8;}
	.st12{fill:#0077B5;}
	.st13{fill:#FF4500;}
	.st14{fill:none;}
	.st15{fill:#1DA1F2;}
	.st16{fill:#303D4D;}
	.st17{fill:#BD081C;}
	.st18{fill:#F9EC31;}
	.st19{fill:#00AFF0;}
	.st20{fill:#32B8E8;}
	.st21{fill:#CD201F;}
	.st22{fill:#F29100;}
	.st23{fill:#00749A;}
	.st24{fill:#00AB6C;}
	.st25{fill-rule:evenodd;clip-rule:evenodd;fill:#FF6600;}
	.st26{fill:#FB0A84;}
</style>
<g id="XMLID_1158_">
	<g id="Base_4_">
		<path id="XMLID_307_" class="st21" d="M63,63H0V0h63V63z M3,60h57V3H3V60z"/>
	</g>
	<g id="Lozenge_2_">
		<g id="XMLID_40_">
			<path id="XMLID_42_" class="st21" d="M48.9,24.4c0,0-0.3-2.5-1.4-3.5c-1.4-1.4-2.9-1.4-3.6-1.5C39,19,31.5,19,31.5,19h0
				c0,0-7.5,0-12.4,0.4c-0.7,0.1-2.2,0.1-3.6,1.5c-1.1,1.1-1.4,3.5-1.4,3.5s-0.4,2.9-0.4,5.8v2.7c0,2.9,0.4,5.8,0.4,5.8
				s0.3,2.5,1.4,3.5c1.4,1.4,3.1,1.4,3.9,1.5c2.8,0.3,12.1,0.4,12.1,0.4s7.5,0,12.4-0.4c0.7-0.1,2.2-0.1,3.6-1.5
				c1.1-1.1,1.4-3.5,1.4-3.5s0.4-2.9,0.4-5.8v-2.7C49.3,27.3,48.9,24.4,48.9,24.4z M27.8,36.1l0-10l9.6,5L27.8,36.1z"/>
		</g>
	</g>
</g>
</svg>
